<?xml version="1.0" encoding="utf-8"?>
<svg xmlns="http://www.w3.org/2000/svg" viewBox="-21.8052 -244.7897 733.4766 733.4766" width="733.4766px" height="733.4766px"><defs><clipPath id="fc7cf1e79f"><path d="M 38.261719 38.261719 L 771.761719 38.261719 L 771.761719 771.761719 L 38.261719 771.761719 Z M 38.261719 38.261719 "/></clipPath><clipPath id="7018edcf0f"><path d="M 287 243.203125 L 523 243.203125 L 523 436.703125 L 287 436.703125 Z M 287 243.203125 "/></clipPath></defs><g id="dac1428a5c" transform="matrix(1, 0, 0, 1, -60.066871643066406, -283.05145263671875)"><g clip-rule="nonzero" clip-path="url(#fc7cf1e79f)"><path style=" stroke:none;fill-rule:nonzero;fill:#fadee6;fill-opacity:1;" d="M 38.261719 38.261719 L 38.261719 771.738281 L 771.738281 771.738281 L 771.738281 38.261719 Z M 763.449219 763.449219 L 46.546875 763.449219 L 46.546875 46.546875 L 763.449219 46.546875 Z M 763.449219 763.449219 " id="object-1"/></g><g clip-rule="nonzero" clip-path="url(#7018edcf0f)"><path style=" stroke:none;fill-rule:evenodd;fill:#f17b76;fill-opacity:1;" d="M 325.78125 436.339844 C 324.675781 436.339844 323.570312 435.789062 323.019531 434.824219 L 287.8125 374.492188 C 286.847656 372.972656 287.398438 371.039062 288.917969 370.210938 L 311.835938 356.820312 C 315.425781 354.75 317.21875 359.859375 319.429688 363.585938 C 322.191406 361.652344 325.089844 359.582031 327.710938 357.648438 C 349.523438 342.1875 370.234375 327.554688 401.019531 345.363281 C 403.230469 346.054688 436.363281 341.496094 451.6875 351.300781 C 462.730469 344.535156 482.75 330.039062 493.65625 343.566406 C 505.390625 338.597656 517.402344 338.183594 522.507812 351.160156 C 523.0625 352.402344 522.648438 354.058594 521.40625 354.886719 C 510.773438 362.207031 501.386719 369.109375 493.101562 375.320312 C 452.515625 405.554688 431.945312 420.878906 364.160156 402.933594 L 348.007812 412.457031 C 349.664062 415.21875 352.285156 418.53125 351.734375 420.601562 C 351.457031 421.292969 351.042969 421.984375 350.214844 422.398438 L 327.296875 435.925781 C 326.746094 436.203125 326.332031 436.339844 325.78125 436.339844 Z M 427.113281 339.148438 C 426.285156 339.148438 425.59375 338.875 424.902344 338.320312 C 402.398438 315.820312 379.207031 292.488281 379.207031 268.742188 C 379.207031 254.660156 390.664062 243.203125 404.746094 243.203125 C 415.792969 243.203125 422.140625 248.449219 427.113281 256.59375 C 432.21875 248.449219 438.433594 243.203125 449.617188 243.203125 C 463.695312 243.203125 475.15625 254.660156 475.15625 268.742188 C 475.15625 292.488281 451.824219 315.820312 429.320312 338.320312 C 428.769531 338.875 427.941406 339.148438 427.113281 339.148438 Z M 404.746094 249.414062 C 394.117188 249.414062 385.417969 258.109375 385.417969 268.742188 C 385.417969 289.171875 406.265625 310.710938 427.113281 331.558594 C 448.097656 310.710938 468.941406 289.171875 468.941406 268.742188 C 468.941406 258.109375 460.246094 249.414062 449.617188 249.414062 C 440.503906 249.414062 435.671875 253.28125 430.011719 264.601562 C 428.769531 266.808594 425.457031 266.808594 424.351562 264.601562 C 418.691406 253.28125 413.722656 249.414062 404.746094 249.414062 Z M 322.605469 368.96875 L 344.832031 406.933594 L 362.089844 396.855469 C 362.917969 396.441406 363.746094 396.304688 364.574219 396.582031 C 430.425781 414.253906 448.925781 400.445312 489.375 370.210938 C 497.105469 364.550781 505.804688 358.0625 515.605469 351.160156 C 514.363281 349.089844 512.570312 347.710938 510.496094 347.019531 C 499.867188 343.980469 480.125 357.925781 468.390625 366.347656 C 464.941406 368.695312 459.695312 372.972656 457.621094 372.972656 L 411.648438 373.113281 C 407.648438 373.113281 407.507812 366.898438 411.648438 366.898438 L 454.585938 366.625 C 452.375 343.84375 402.816406 353.785156 398.535156 351.300781 C 366.78125 332.386719 348.007812 351.574219 322.605469 368.96875 Z M 341.105469 412.871094 C 331.578125 397.269531 321.777344 379.875 312.386719 363.863281 L 294.855469 374.078125 L 326.882812 428.886719 L 344.417969 418.671875 Z M 456.65625 355.714844 C 458.589844 358.0625 459.96875 360.960938 460.523438 364.136719 C 469.082031 358.203125 477.917969 351.574219 487.71875 346.328125 C 480.265625 339.839844 464.527344 350.609375 456.65625 355.714844 Z M 456.65625 355.714844 " id="object-0"/></g><g style="fill:#f17b76;fill-opacity:1;"><g transform="translate(74.129531, 521.97765)"><path style="stroke:none" d="M 56.71875 -73.671875 L 56.609375 -58.78125 L 56.5 -15.328125 C 56.5 -13.296875 56.820312 -11.804688 57.46875 -10.859375 C 58.125 -9.921875 58.867188 -9.253906 59.703125 -8.859375 C 60.535156 -8.460938 61.273438 -8.097656 61.921875 -7.765625 C 62.578125 -7.441406 62.90625 -6.878906 62.90625 -6.078125 C 62.90625 -4.921875 61.859375 -3.765625 59.765625 -2.609375 C 58.242188 -1.804688 56.394531 -1.003906 54.21875 -0.203125 C 52.039062 0.585938 50.226562 0.984375 48.78125 0.984375 C 46.101562 0.984375 44.726562 -1.007812 44.65625 -5 L 44.546875 -8.359375 C 42.734375 -5.753906 40.304688 -3.507812 37.265625 -1.625 C 34.222656 0.25 30.53125 1.15625 26.1875 1.09375 C 21.695312 1.019531 17.765625 -0.101562 14.390625 -2.28125 C 11.023438 -4.457031 8.398438 -7.390625 6.515625 -11.078125 C 4.628906 -14.773438 3.6875 -18.941406 3.6875 -23.578125 C 3.6875 -28.066406 4.460938 -32.125 6.015625 -35.75 C 7.578125 -39.375 9.660156 -42.488281 12.265625 -45.09375 C 14.878906 -47.695312 17.816406 -49.703125 21.078125 -51.109375 C 24.335938 -52.523438 27.632812 -53.234375 30.96875 -53.234375 C 36.113281 -53.234375 40.566406 -51.929688 44.328125 -49.328125 L 44.328125 -58.671875 C 44.328125 -60.847656 44.054688 -62.476562 43.515625 -63.5625 C 42.972656 -64.644531 42.359375 -65.441406 41.671875 -65.953125 C 40.984375 -66.460938 40.363281 -66.929688 39.8125 -67.359375 C 39.269531 -67.796875 39 -68.414062 39 -69.21875 C 39 -69.863281 39.21875 -70.40625 39.65625 -70.84375 C 40.09375 -71.28125 40.960938 -71.785156 42.265625 -72.359375 C 44.585938 -73.453125 46.976562 -74.414062 49.4375 -75.25 C 51.90625 -76.082031 53.570312 -76.5 54.4375 -76.5 C 55.957031 -76.644531 56.71875 -75.703125 56.71875 -73.671875 Z M 31.1875 -7.171875 C 33.789062 -7.171875 36.035156 -7.800781 37.921875 -9.0625 C 39.804688 -10.332031 41.269531 -11.945312 42.3125 -13.90625 C 43.363281 -15.863281 44 -17.925781 44.21875 -20.09375 L 44.21875 -25.859375 C 44.144531 -28.109375 43.910156 -30.410156 43.515625 -32.765625 C 43.117188 -35.117188 42.410156 -37.195312 41.390625 -39 C 38.492188 -44.4375 34.332031 -47.15625 28.90625 -47.15625 C 24.695312 -47.15625 21.414062 -45.503906 19.0625 -42.203125 C 16.707031 -38.910156 15.53125 -34.660156 15.53125 -29.453125 C 15.53125 -24.597656 16.289062 -20.519531 17.8125 -17.21875 C 19.332031 -13.925781 21.285156 -11.425781 23.671875 -9.71875 C 26.066406 -8.019531 28.570312 -7.171875 31.1875 -7.171875 Z M 31.1875 -7.171875 " id="object-4"/></g></g><g style="fill:#f17b76;fill-opacity:1;"><g transform="translate(138.671893, 521.97765)"><path style="stroke:none" d="M 29.234375 1.09375 C 24.378906 1.09375 20.03125 0.0625 16.1875 -2 C 12.351562 -4.070312 9.3125 -6.988281 7.0625 -10.75 C 4.8125 -14.519531 3.6875 -18.976562 3.6875 -24.125 C 3.6875 -29.550781 4.953125 -34.472656 7.484375 -38.890625 C 10.023438 -43.316406 13.503906 -46.8125 17.921875 -49.375 C 22.347656 -51.945312 27.382812 -53.234375 33.03125 -53.234375 C 37.957031 -53.234375 42.300781 -52.09375 46.0625 -49.8125 C 49.832031 -47.53125 52.785156 -44.453125 54.921875 -40.578125 C 57.054688 -36.703125 58.125 -32.335938 58.125 -27.484375 C 58.125 -22.128906 56.894531 -17.273438 54.4375 -12.921875 C 51.976562 -8.578125 48.570312 -5.15625 44.21875 -2.65625 C 39.875 -0.15625 34.878906 1.09375 29.234375 1.09375 Z M 33.25 -5.109375 C 37.445312 -5.109375 40.628906 -6.644531 42.796875 -9.71875 C 44.972656 -12.800781 46.0625 -16.585938 46.0625 -21.078125 C 46.0625 -25.421875 45.316406 -29.566406 43.828125 -33.515625 C 42.347656 -37.460938 40.304688 -40.6875 37.703125 -43.1875 C 35.097656 -45.6875 32.09375 -46.9375 28.6875 -46.9375 C 25.789062 -46.9375 23.398438 -46.175781 21.515625 -44.65625 C 19.628906 -43.132812 18.210938 -41.101562 17.265625 -38.5625 C 16.328125 -36.03125 15.859375 -33.242188 15.859375 -30.203125 C 15.859375 -25.710938 16.597656 -21.566406 18.078125 -17.765625 C 19.566406 -13.960938 21.613281 -10.898438 24.21875 -8.578125 C 26.832031 -6.265625 29.84375 -5.109375 33.25 -5.109375 Z M 33.25 -5.109375 " id="object-3"/></g></g><g style="fill:#f17b76;fill-opacity:1;"><g transform="translate(200.715147, 521.97765)"><path style="stroke:none" d="M 58.890625 -30.859375 L 59 -14.671875 C 59 -12.128906 59.269531 -10.242188 59.8125 -9.015625 C 60.351562 -7.785156 60.96875 -6.878906 61.65625 -6.296875 C 62.34375 -5.722656 62.941406 -5.195312 63.453125 -4.71875 C 63.960938 -4.25 64.21875 -3.472656 64.21875 -2.390625 C 64.21875 -1.453125 63.816406 -0.816406 63.015625 -0.484375 C 62.222656 -0.160156 61.140625 0 59.765625 0 L 46.0625 0 C 44.6875 0 43.582031 -0.179688 42.75 -0.546875 C 41.914062 -0.910156 41.5 -1.5625 41.5 -2.5 C 41.5 -3.507812 41.769531 -4.25 42.3125 -4.71875 C 42.863281 -5.195312 43.484375 -5.722656 44.171875 -6.296875 C 44.859375 -6.878906 45.453125 -7.785156 45.953125 -9.015625 C 46.460938 -10.242188 46.71875 -12.128906 46.71875 -14.671875 L 46.71875 -29.34375 C 46.71875 -33.90625 45.863281 -37.757812 44.15625 -40.90625 C 42.457031 -44.0625 39.472656 -45.601562 35.203125 -45.53125 C 31.722656 -45.457031 28.660156 -43.96875 26.015625 -41.0625 C 23.378906 -38.164062 22.0625 -33.820312 22.0625 -28.03125 L 22.0625 -14.671875 C 22.0625 -12.128906 22.332031 -10.242188 22.875 -9.015625 C 23.414062 -7.785156 24.03125 -6.878906 24.71875 -6.296875 C 25.40625 -5.722656 26 -5.195312 26.5 -4.71875 C 27.007812 -4.25 27.265625 -3.472656 27.265625 -2.390625 C 27.265625 -1.453125 26.863281 -0.816406 26.0625 -0.484375 C 25.269531 -0.160156 24.148438 0 22.703125 0 L 9.125 0 C 7.75 0 6.644531 -0.179688 5.8125 -0.546875 C 4.976562 -0.910156 4.5625 -1.5625 4.5625 -2.5 C 4.5625 -3.507812 4.832031 -4.25 5.375 -4.71875 C 5.914062 -5.195312 6.53125 -5.722656 7.21875 -6.296875 C 7.914062 -6.878906 8.515625 -7.785156 9.015625 -9.015625 C 9.523438 -10.242188 9.78125 -12.128906 9.78125 -14.671875 L 9.78125 -35.96875 C 9.78125 -37.632812 9.539062 -39.082031 9.0625 -40.3125 C 8.59375 -41.539062 7.742188 -42.554688 6.515625 -43.359375 C 5.941406 -43.710938 5.472656 -44.109375 5.109375 -44.546875 C 4.742188 -44.984375 4.5625 -45.523438 4.5625 -46.171875 C 4.5625 -46.898438 4.78125 -47.5 5.21875 -47.96875 C 5.65625 -48.4375 6.523438 -48.960938 7.828125 -49.546875 C 9.703125 -50.410156 11.742188 -51.1875 13.953125 -51.875 C 16.171875 -52.570312 17.710938 -52.957031 18.578125 -53.03125 C 20.097656 -53.03125 20.859375 -52.085938 20.859375 -50.203125 L 20.75 -42.59375 C 23 -46.21875 25.789062 -48.894531 29.125 -50.625 C 32.457031 -52.363281 35.894531 -53.234375 39.4375 -53.234375 C 45.664062 -53.234375 50.460938 -51.3125 53.828125 -47.46875 C 57.203125 -43.632812 58.890625 -38.097656 58.890625 -30.859375 Z M 58.890625 -30.859375 " id="object-2"/></g></g><g style="fill:#f17b76;fill-opacity:1;"><g transform="translate(268.0826, 521.97765)"><path style="stroke:none" d="M 50.640625 -33.25 L 50.640625 -13.6875 C 50.640625 -11.445312 50.984375 -9.925781 51.671875 -9.125 C 52.359375 -8.332031 53.171875 -7.898438 54.109375 -7.828125 C 55.046875 -7.753906 55.859375 -7.679688 56.546875 -7.609375 C 57.242188 -7.535156 57.59375 -7.097656 57.59375 -6.296875 C 57.59375 -5.285156 57.101562 -4.234375 56.125 -3.140625 C 55.144531 -2.054688 53.929688 -1.171875 52.484375 -0.484375 C 51.035156 0.203125 49.550781 0.546875 48.03125 0.546875 C 46 0.546875 44.1875 0.00390625 42.59375 -1.078125 C 41 -2.171875 39.910156 -4.273438 39.328125 -7.390625 C 36.941406 -4.421875 34.15625 -2.28125 30.96875 -0.96875 C 27.78125 0.332031 24.519531 0.984375 21.1875 0.984375 C 17.5625 0.984375 14.300781 0.296875 11.40625 -1.078125 C 8.507812 -2.460938 6.226562 -4.382812 4.5625 -6.84375 C 2.894531 -9.3125 2.0625 -12.171875 2.0625 -15.421875 C 2.0625 -18.898438 3.039062 -21.976562 5 -24.65625 C 6.957031 -27.34375 9.707031 -29.425781 13.25 -30.90625 C 16.800781 -32.394531 20.929688 -33.140625 25.640625 -33.140625 C 27.304688 -33.140625 29.296875 -33.007812 31.609375 -32.75 C 33.929688 -32.5 36.363281 -31.867188 38.90625 -30.859375 C 38.613281 -36.078125 37.304688 -39.753906 34.984375 -41.890625 C 32.671875 -44.023438 29.335938 -45.09375 24.984375 -45.09375 C 22.378906 -45.09375 20.046875 -44.726562 17.984375 -44 C 15.921875 -43.28125 13.835938 -42.304688 11.734375 -41.078125 C 10.722656 -40.421875 9.835938 -40.398438 9.078125 -41.015625 C 8.316406 -41.628906 8.332031 -42.585938 9.125 -43.890625 C 10.070312 -45.273438 11.554688 -46.671875 13.578125 -48.078125 C 15.609375 -49.492188 18.035156 -50.691406 20.859375 -51.671875 C 23.679688 -52.648438 26.6875 -53.140625 29.875 -53.140625 C 36.976562 -53.140625 42.210938 -51.269531 45.578125 -47.53125 C 48.953125 -43.800781 50.640625 -39.039062 50.640625 -33.25 Z M 25.75 -5.875 C 27.925781 -5.875 30.007812 -6.378906 32 -7.390625 C 33.988281 -8.398438 35.632812 -9.644531 36.9375 -11.125 C 38.25 -12.613281 38.90625 -14.117188 38.90625 -15.640625 C 38.90625 -17.023438 38.90625 -18.164062 38.90625 -19.0625 C 38.90625 -19.96875 38.867188 -21.4375 38.796875 -23.46875 C 38.722656 -24.695312 37.5625 -25.742188 35.3125 -26.609375 C 33.0625 -27.484375 30.378906 -27.921875 27.265625 -27.921875 C 23.210938 -27.921875 19.914062 -26.925781 17.375 -24.9375 C 14.84375 -22.945312 13.613281 -20.210938 13.6875 -16.734375 C 13.832031 -13.398438 14.953125 -10.753906 17.046875 -8.796875 C 19.148438 -6.847656 22.050781 -5.875 25.75 -5.875 Z M 25.75 -5.875 " id="object-5"/></g></g><g style="fill:#f17b76;fill-opacity:1;"><g transform="translate(328.821958, 521.97765)"><path style="stroke:none" d="M 35.09375 -11.078125 C 36.039062 -11.878906 36.859375 -11.988281 37.546875 -11.40625 C 38.234375 -10.832031 38.394531 -10.035156 38.03125 -9.015625 C 37.519531 -7.640625 36.59375 -6.15625 35.25 -4.5625 C 33.914062 -2.96875 32.179688 -1.625 30.046875 -0.53125 C 27.910156 0.550781 25.390625 1.09375 22.484375 1.09375 C 17.847656 1.09375 14.316406 -0.300781 11.890625 -3.09375 C 9.472656 -5.882812 8.265625 -9.925781 8.265625 -15.21875 L 8.265625 -19.671875 C 8.265625 -25.242188 8.296875 -30.289062 8.359375 -34.8125 C 8.429688 -39.34375 8.539062 -43.164062 8.6875 -46.28125 L 5.109375 -46.28125 C 3.878906 -46.28125 3.007812 -46.476562 2.5 -46.875 C 1.988281 -47.28125 1.734375 -47.878906 1.734375 -48.671875 C 1.734375 -49.765625 2.171875 -50.78125 3.046875 -51.71875 C 5.066406 -53.894531 7.179688 -55.90625 9.390625 -57.75 C 11.609375 -59.59375 13.726562 -61.207031 15.75 -62.59375 C 16.769531 -63.238281 17.515625 -63.613281 17.984375 -63.71875 C 18.453125 -63.832031 18.867188 -63.890625 19.234375 -63.890625 C 19.953125 -63.890625 20.472656 -63.617188 20.796875 -63.078125 C 21.128906 -62.535156 21.257812 -61.863281 21.1875 -61.0625 C 21.113281 -59.757812 21.039062 -58.398438 20.96875 -56.984375 C 20.894531 -55.578125 20.820312 -53.96875 20.75 -52.15625 L 31.625 -52.15625 C 32.5625 -52.15625 33.351562 -51.972656 34 -51.609375 C 34.65625 -51.242188 34.835938 -50.335938 34.546875 -48.890625 C 34.265625 -47.367188 33.707031 -46.425781 32.875 -46.0625 C 32.039062 -45.707031 31.113281 -45.566406 30.09375 -45.640625 L 20.640625 -45.96875 C 20.566406 -42.988281 20.53125 -39.378906 20.53125 -35.140625 C 20.53125 -30.910156 20.457031 -25.753906 20.3125 -19.671875 C 20.238281 -15.460938 20.671875 -12.414062 21.609375 -10.53125 C 22.554688 -8.65625 24.375 -7.71875 27.0625 -7.71875 C 28.507812 -7.71875 29.957031 -8.0625 31.40625 -8.75 C 32.851562 -9.4375 34.082031 -10.210938 35.09375 -11.078125 Z M 35.09375 -11.078125 " id="object-6"/></g></g><g style="fill:#f17b76;fill-opacity:1;"><g transform="translate(369.133786, 521.97765)"><path style="stroke:none" d="M 54.109375 -29.015625 C 54.035156 -27.421875 53.164062 -26.625 51.5 -26.625 L 15.859375 -26.296875 C 16.148438 -22.816406 17.09375 -19.679688 18.6875 -16.890625 C 20.28125 -14.109375 22.4375 -11.898438 25.15625 -10.265625 C 27.875 -8.640625 30.96875 -7.828125 34.4375 -7.828125 C 37.914062 -7.828125 40.957031 -8.515625 43.5625 -9.890625 C 46.175781 -11.265625 48.425781 -12.894531 50.3125 -14.78125 C 51.320312 -15.789062 52.257812 -16.003906 53.125 -15.421875 C 54 -14.847656 54.144531 -13.835938 53.5625 -12.390625 C 52.84375 -10.503906 51.484375 -8.507812 49.484375 -6.40625 C 47.492188 -4.3125 44.882812 -2.535156 41.65625 -1.078125 C 38.4375 0.367188 34.582031 1.09375 30.09375 1.09375 C 24.8125 1.09375 20.175781 -0.03125 16.1875 -2.28125 C 12.207031 -4.53125 9.128906 -7.644531 6.953125 -11.625 C 4.773438 -15.613281 3.6875 -20.140625 3.6875 -25.203125 C 3.6875 -30.492188 4.914062 -35.238281 7.375 -39.4375 C 9.84375 -43.644531 13.195312 -46.992188 17.4375 -49.484375 C 21.675781 -51.984375 26.367188 -53.234375 31.515625 -53.234375 C 36.078125 -53.234375 40.128906 -52.253906 43.671875 -50.296875 C 47.222656 -48.347656 49.957031 -45.5625 51.875 -41.9375 C 53.800781 -38.320312 54.546875 -34.015625 54.109375 -29.015625 Z M 18.25 -31.84375 L 39.984375 -31.9375 C 40.992188 -31.9375 41.644531 -32.082031 41.9375 -32.375 C 42.226562 -32.664062 42.335938 -33.425781 42.265625 -34.65625 C 42.046875 -38.28125 40.796875 -41.304688 38.515625 -43.734375 C 36.234375 -46.160156 33.101562 -47.375 29.125 -47.375 C 26.363281 -47.375 24.003906 -46.648438 22.046875 -45.203125 C 20.097656 -43.753906 18.578125 -42.015625 17.484375 -39.984375 C 16.398438 -37.953125 15.820312 -36 15.75 -34.125 C 15.675781 -33.101562 15.785156 -32.46875 16.078125 -32.21875 C 16.367188 -31.96875 17.09375 -31.84375 18.25 -31.84375 Z M 18.25 -31.84375 " id="object-7"/></g></g><g style="fill:#f17b76;fill-opacity:1;"><g transform="translate(426.396123, 521.97765)"><path style="stroke:none" d=""/></g></g><g style="fill:#f17b76;fill-opacity:1;"><g transform="translate(448.127549, 521.97765)"><path style="stroke:none" d="M 35.09375 -11.078125 C 36.039062 -11.878906 36.859375 -11.988281 37.546875 -11.40625 C 38.234375 -10.832031 38.394531 -10.035156 38.03125 -9.015625 C 37.519531 -7.640625 36.59375 -6.15625 35.25 -4.5625 C 33.914062 -2.96875 32.179688 -1.625 30.046875 -0.53125 C 27.910156 0.550781 25.390625 1.09375 22.484375 1.09375 C 17.847656 1.09375 14.316406 -0.300781 11.890625 -3.09375 C 9.472656 -5.882812 8.265625 -9.925781 8.265625 -15.21875 L 8.265625 -19.671875 C 8.265625 -25.242188 8.296875 -30.289062 8.359375 -34.8125 C 8.429688 -39.34375 8.539062 -43.164062 8.6875 -46.28125 L 5.109375 -46.28125 C 3.878906 -46.28125 3.007812 -46.476562 2.5 -46.875 C 1.988281 -47.28125 1.734375 -47.878906 1.734375 -48.671875 C 1.734375 -49.765625 2.171875 -50.78125 3.046875 -51.71875 C 5.066406 -53.894531 7.179688 -55.90625 9.390625 -57.75 C 11.609375 -59.59375 13.726562 -61.207031 15.75 -62.59375 C 16.769531 -63.238281 17.515625 -63.613281 17.984375 -63.71875 C 18.453125 -63.832031 18.867188 -63.890625 19.234375 -63.890625 C 19.953125 -63.890625 20.472656 -63.617188 20.796875 -63.078125 C 21.128906 -62.535156 21.257812 -61.863281 21.1875 -61.0625 C 21.113281 -59.757812 21.039062 -58.398438 20.96875 -56.984375 C 20.894531 -55.578125 20.820312 -53.96875 20.75 -52.15625 L 31.625 -52.15625 C 32.5625 -52.15625 33.351562 -51.972656 34 -51.609375 C 34.65625 -51.242188 34.835938 -50.335938 34.546875 -48.890625 C 34.265625 -47.367188 33.707031 -46.425781 32.875 -46.0625 C 32.039062 -45.707031 31.113281 -45.566406 30.09375 -45.640625 L 20.640625 -45.96875 C 20.566406 -42.988281 20.53125 -39.378906 20.53125 -35.140625 C 20.53125 -30.910156 20.457031 -25.753906 20.3125 -19.671875 C 20.238281 -15.460938 20.671875 -12.414062 21.609375 -10.53125 C 22.554688 -8.65625 24.375 -7.71875 27.0625 -7.71875 C 28.507812 -7.71875 29.957031 -8.0625 31.40625 -8.75 C 32.851562 -9.4375 34.082031 -10.210938 35.09375 -11.078125 Z M 35.09375 -11.078125 " id="object-8"/></g></g><g style="fill:#f17b76;fill-opacity:1;"><g transform="translate(488.439377, 521.97765)"><path style="stroke:none" d="M 29.234375 1.09375 C 24.378906 1.09375 20.03125 0.0625 16.1875 -2 C 12.351562 -4.070312 9.3125 -6.988281 7.0625 -10.75 C 4.8125 -14.519531 3.6875 -18.976562 3.6875 -24.125 C 3.6875 -29.550781 4.953125 -34.472656 7.484375 -38.890625 C 10.023438 -43.316406 13.503906 -46.8125 17.921875 -49.375 C 22.347656 -51.945312 27.382812 -53.234375 33.03125 -53.234375 C 37.957031 -53.234375 42.300781 -52.09375 46.0625 -49.8125 C 49.832031 -47.53125 52.785156 -44.453125 54.921875 -40.578125 C 57.054688 -36.703125 58.125 -32.335938 58.125 -27.484375 C 58.125 -22.128906 56.894531 -17.273438 54.4375 -12.921875 C 51.976562 -8.578125 48.570312 -5.15625 44.21875 -2.65625 C 39.875 -0.15625 34.878906 1.09375 29.234375 1.09375 Z M 33.25 -5.109375 C 37.445312 -5.109375 40.628906 -6.644531 42.796875 -9.71875 C 44.972656 -12.800781 46.0625 -16.585938 46.0625 -21.078125 C 46.0625 -25.421875 45.316406 -29.566406 43.828125 -33.515625 C 42.347656 -37.460938 40.304688 -40.6875 37.703125 -43.1875 C 35.097656 -45.6875 32.09375 -46.9375 28.6875 -46.9375 C 25.789062 -46.9375 23.398438 -46.175781 21.515625 -44.65625 C 19.628906 -43.132812 18.210938 -41.101562 17.265625 -38.5625 C 16.328125 -36.03125 15.859375 -33.242188 15.859375 -30.203125 C 15.859375 -25.710938 16.597656 -21.566406 18.078125 -17.765625 C 19.566406 -13.960938 21.613281 -10.898438 24.21875 -8.578125 C 26.832031 -6.265625 29.84375 -5.109375 33.25 -5.109375 Z M 33.25 -5.109375 " id="object-9"/></g></g><g style="fill:#f17b76;fill-opacity:1;"><g transform="translate(550.482631, 521.97765)"><path style="stroke:none" d="M 56.71875 -73.671875 L 56.609375 -58.78125 L 56.5 -15.328125 C 56.5 -13.296875 56.820312 -11.804688 57.46875 -10.859375 C 58.125 -9.921875 58.867188 -9.253906 59.703125 -8.859375 C 60.535156 -8.460938 61.273438 -8.097656 61.921875 -7.765625 C 62.578125 -7.441406 62.90625 -6.878906 62.90625 -6.078125 C 62.90625 -4.921875 61.859375 -3.765625 59.765625 -2.609375 C 58.242188 -1.804688 56.394531 -1.003906 54.21875 -0.203125 C 52.039062 0.585938 50.226562 0.984375 48.78125 0.984375 C 46.101562 0.984375 44.726562 -1.007812 44.65625 -5 L 44.546875 -8.359375 C 42.734375 -5.753906 40.304688 -3.507812 37.265625 -1.625 C 34.222656 0.25 30.53125 1.15625 26.1875 1.09375 C 21.695312 1.019531 17.765625 -0.101562 14.390625 -2.28125 C 11.023438 -4.457031 8.398438 -7.390625 6.515625 -11.078125 C 4.628906 -14.773438 3.6875 -18.941406 3.6875 -23.578125 C 3.6875 -28.066406 4.460938 -32.125 6.015625 -35.75 C 7.578125 -39.375 9.660156 -42.488281 12.265625 -45.09375 C 14.878906 -47.695312 17.816406 -49.703125 21.078125 -51.109375 C 24.335938 -52.523438 27.632812 -53.234375 30.96875 -53.234375 C 36.113281 -53.234375 40.566406 -51.929688 44.328125 -49.328125 L 44.328125 -58.671875 C 44.328125 -60.847656 44.054688 -62.476562 43.515625 -63.5625 C 42.972656 -64.644531 42.359375 -65.441406 41.671875 -65.953125 C 40.984375 -66.460938 40.363281 -66.929688 39.8125 -67.359375 C 39.269531 -67.796875 39 -68.414062 39 -69.21875 C 39 -69.863281 39.21875 -70.40625 39.65625 -70.84375 C 40.09375 -71.28125 40.960938 -71.785156 42.265625 -72.359375 C 44.585938 -73.453125 46.976562 -74.414062 49.4375 -75.25 C 51.90625 -76.082031 53.570312 -76.5 54.4375 -76.5 C 55.957031 -76.644531 56.71875 -75.703125 56.71875 -73.671875 Z M 31.1875 -7.171875 C 33.789062 -7.171875 36.035156 -7.800781 37.921875 -9.0625 C 39.804688 -10.332031 41.269531 -11.945312 42.3125 -13.90625 C 43.363281 -15.863281 44 -17.925781 44.21875 -20.09375 L 44.21875 -25.859375 C 44.144531 -28.109375 43.910156 -30.410156 43.515625 -32.765625 C 43.117188 -35.117188 42.410156 -37.195312 41.390625 -39 C 38.492188 -44.4375 34.332031 -47.15625 28.90625 -47.15625 C 24.695312 -47.15625 21.414062 -45.503906 19.0625 -42.203125 C 16.707031 -38.910156 15.53125 -34.660156 15.53125 -29.453125 C 15.53125 -24.597656 16.289062 -20.519531 17.8125 -17.21875 C 19.332031 -13.925781 21.285156 -11.425781 23.671875 -9.71875 C 26.066406 -8.019531 28.570312 -7.171875 31.1875 -7.171875 Z M 31.1875 -7.171875 " id="object-10"/></g></g><g style="fill:#f17b76;fill-opacity:1;"><g transform="translate(615.024976, 521.97765)"><path style="stroke:none" d="M 50.640625 -33.25 L 50.640625 -13.6875 C 50.640625 -11.445312 50.984375 -9.925781 51.671875 -9.125 C 52.359375 -8.332031 53.171875 -7.898438 54.109375 -7.828125 C 55.046875 -7.753906 55.859375 -7.679688 56.546875 -7.609375 C 57.242188 -7.535156 57.59375 -7.097656 57.59375 -6.296875 C 57.59375 -5.285156 57.101562 -4.234375 56.125 -3.140625 C 55.144531 -2.054688 53.929688 -1.171875 52.484375 -0.484375 C 51.035156 0.203125 49.550781 0.546875 48.03125 0.546875 C 46 0.546875 44.1875 0.00390625 42.59375 -1.078125 C 41 -2.171875 39.910156 -4.273438 39.328125 -7.390625 C 36.941406 -4.421875 34.15625 -2.28125 30.96875 -0.96875 C 27.78125 0.332031 24.519531 0.984375 21.1875 0.984375 C 17.5625 0.984375 14.300781 0.296875 11.40625 -1.078125 C 8.507812 -2.460938 6.226562 -4.382812 4.5625 -6.84375 C 2.894531 -9.3125 2.0625 -12.171875 2.0625 -15.421875 C 2.0625 -18.898438 3.039062 -21.976562 5 -24.65625 C 6.957031 -27.34375 9.707031 -29.425781 13.25 -30.90625 C 16.800781 -32.394531 20.929688 -33.140625 25.640625 -33.140625 C 27.304688 -33.140625 29.296875 -33.007812 31.609375 -32.75 C 33.929688 -32.5 36.363281 -31.867188 38.90625 -30.859375 C 38.613281 -36.078125 37.304688 -39.753906 34.984375 -41.890625 C 32.671875 -44.023438 29.335938 -45.09375 24.984375 -45.09375 C 22.378906 -45.09375 20.046875 -44.726562 17.984375 -44 C 15.921875 -43.28125 13.835938 -42.304688 11.734375 -41.078125 C 10.722656 -40.421875 9.835938 -40.398438 9.078125 -41.015625 C 8.316406 -41.628906 8.332031 -42.585938 9.125 -43.890625 C 10.070312 -45.273438 11.554688 -46.671875 13.578125 -48.078125 C 15.609375 -49.492188 18.035156 -50.691406 20.859375 -51.671875 C 23.679688 -52.648438 26.6875 -53.140625 29.875 -53.140625 C 36.976562 -53.140625 42.210938 -51.269531 45.578125 -47.53125 C 48.953125 -43.800781 50.640625 -39.039062 50.640625 -33.25 Z M 25.75 -5.875 C 27.925781 -5.875 30.007812 -6.378906 32 -7.390625 C 33.988281 -8.398438 35.632812 -9.644531 36.9375 -11.125 C 38.25 -12.613281 38.90625 -14.117188 38.90625 -15.640625 C 38.90625 -17.023438 38.90625 -18.164062 38.90625 -19.0625 C 38.90625 -19.96875 38.867188 -21.4375 38.796875 -23.46875 C 38.722656 -24.695312 37.5625 -25.742188 35.3125 -26.609375 C 33.0625 -27.484375 30.378906 -27.921875 27.265625 -27.921875 C 23.210938 -27.921875 19.914062 -26.925781 17.375 -24.9375 C 14.84375 -22.945312 13.613281 -20.210938 13.6875 -16.734375 C 13.832031 -13.398438 14.953125 -10.753906 17.046875 -8.796875 C 19.148438 -6.847656 22.050781 -5.875 25.75 -5.875 Z M 25.75 -5.875 " id="object-11"/></g></g><g style="fill:#f17b76;fill-opacity:1;"><g transform="translate(675.764334, 521.97765)"><path style="stroke:none" d="M 47.59375 -52.15625 L 54.4375 -52.15625 C 55.8125 -52.15625 56.914062 -51.988281 57.75 -51.65625 C 58.582031 -51.332031 59 -50.703125 59 -49.765625 C 59 -48.890625 58.765625 -48.21875 58.296875 -47.75 C 57.828125 -47.28125 57.210938 -46.738281 56.453125 -46.125 C 55.691406 -45.507812 54.875 -44.640625 54 -43.515625 C 53.132812 -42.390625 52.265625 -40.742188 51.390625 -38.578125 L 37.375 -2.390625 C 35.414062 2.679688 33.492188 7.117188 31.609375 10.921875 C 29.734375 14.722656 27.488281 17.65625 24.875 19.71875 C 22.269531 21.78125 18.796875 22.8125 14.453125 22.8125 C 11.191406 22.8125 8.457031 21.976562 6.25 20.3125 C 4.039062 18.644531 2.9375 16.546875 2.9375 14.015625 C 2.9375 12.347656 3.457031 10.828125 4.5 9.453125 C 5.550781 8.078125 6.984375 7.390625 8.796875 7.390625 C 10.171875 7.390625 11.273438 7.785156 12.109375 8.578125 C 12.941406 9.378906 13.703125 10.320312 14.390625 11.40625 C 15.078125 12.488281 15.835938 13.445312 16.671875 14.28125 C 17.503906 15.113281 18.578125 15.53125 19.890625 15.53125 C 21.691406 15.53125 23.191406 14.40625 24.390625 12.15625 C 25.585938 9.914062 26.1875 7.457031 26.1875 4.78125 C 26.1875 3.332031 26.003906 1.972656 25.640625 0.703125 C 25.273438 -0.554688 24.84375 -1.84375 24.34375 -3.15625 L 10.328125 -38.578125 C 9.453125 -40.742188 8.5625 -42.390625 7.65625 -43.515625 C 6.75 -44.640625 5.929688 -45.507812 5.203125 -46.125 C 4.484375 -46.738281 3.890625 -47.28125 3.421875 -47.75 C 2.953125 -48.21875 2.71875 -48.890625 2.71875 -49.765625 C 2.71875 -50.773438 3.113281 -51.425781 3.90625 -51.71875 C 4.707031 -52.007812 5.796875 -52.15625 7.171875 -52.15625 L 21.515625 -52.15625 C 22.960938 -52.15625 24.101562 -51.988281 24.9375 -51.65625 C 25.769531 -51.332031 26.1875 -50.703125 26.1875 -49.765625 C 26.1875 -48.890625 25.878906 -48.21875 25.265625 -47.75 C 24.648438 -47.28125 24.03125 -46.738281 23.40625 -46.125 C 22.789062 -45.507812 22.394531 -44.640625 22.21875 -43.515625 C 22.039062 -42.390625 22.382812 -40.742188 23.25 -38.578125 L 34.4375 -9.890625 L 45.53125 -38.578125 C 46.394531 -40.742188 46.753906 -42.40625 46.609375 -43.5625 C 46.460938 -44.726562 46.117188 -45.597656 45.578125 -46.171875 C 45.035156 -46.753906 44.492188 -47.28125 43.953125 -47.75 C 43.410156 -48.21875 43.140625 -48.890625 43.140625 -49.765625 C 43.140625 -50.773438 43.535156 -51.425781 44.328125 -51.71875 C 45.128906 -52.007812 46.21875 -52.15625 47.59375 -52.15625 Z M 47.59375 -52.15625 " id="object-12"/></g></g></g></svg>