<?xml version="1.0" encoding="utf-8"?>
<svg xmlns="http://www.w3.org/2000/svg" viewBox="94.1598 190.7534 193.888 208.4622" width="193.888px" height="208.4622px"><g id="b50c5fd106" transform="matrix(1, 0, 0, 1, -215.25836181640625, 12.147313117980957)"><path style=" stroke:none;fill-rule:nonzero;fill:#000001;fill-opacity:1;" d="M 479.671875 255.808594 C 461.074219 266.222656 440.507812 272.980469 420.6875 280.601562 C 439.714844 285.117188 490.988281 293.789062 501 308.53125 C 505.921875 315.429688 502.757812 325.710938 493.488281 327.414062 C 465.625 329.199219 439.875 312.644531 418.957031 297.054688 C 417.804688 296.675781 419.113281 298.683594 419.171875 299.0625 C 429.4375 323.675781 440.367188 348.175781 447.6875 373.734375 C 447.742188 373.925781 447.789062 374.117188 447.824219 374.316406 C 449.128906 381.570312 446.902344 388.109375 440.125 386.929688 C 438.351562 386.621094 436.726562 385.792969 435.445312 384.601562 C 412.742188 363.5 407.523438 330.703125 399.242188 302.945312 C 389.492188 326.515625 383.113281 352.089844 369.15625 373.910156 C 364.878906 380.300781 353.078125 381.957031 350.171875 375.257812 C 340.132812 352.117188 358.582031 315.597656 371.957031 295.738281 C 372.191406 295.191406 373.578125 293.699219 372.378906 293.632812 C 283.65625 304.792969 289.570312 256.921875 384.632812 268.667969 C 326.929688 169.316406 396.707031 130.109375 402.753906 267.105469 C 402.796875 267.582031 402.867188 268.625 403.609375 268.191406 C 454.519531 212.617188 521.738281 227.972656 479.671875 255.808594 Z M 479.671875 255.808594 "/></g></svg>