<?xml version="1.0" encoding="utf-8"?>
<svg xmlns="http://www.w3.org/2000/svg" viewBox="119.3161 142.6215 141.9279 37.6565" width="141.9279px" height="37.6565px"><g id="f0fd48c705" transform="matrix(1, 0, 0, 1, -246.8147430419922, -117.37513732910156)"><g style="fill:#000001;fill-opacity:1;"><g transform="translate(366.115238, 274.200008)"><path style="stroke:none" d="M 1.921875 -14 L 6.375 -14 C 7.78125 -14 8.984375 -13.800781 9.984375 -13.40625 C 10.984375 -13.007812 11.796875 -12.484375 12.421875 -11.828125 C 13.046875 -11.171875 13.503906 -10.441406 13.796875 -9.640625 C 14.085938 -8.835938 14.234375 -8.035156 14.234375 -7.234375 C 14.234375 -6.273438 14.085938 -5.363281 13.796875 -4.5 C 13.503906 -3.632812 13.054688 -2.859375 12.453125 -2.171875 C 11.859375 -1.492188 11.097656 -0.960938 10.171875 -0.578125 C 9.253906 -0.191406 8.164062 0 6.90625 0 L 1.921875 0 C 1.222656 0 0.875 -0.160156 0.875 -0.484375 C 0.875 -0.671875 0.925781 -0.804688 1.03125 -0.890625 C 1.132812 -0.972656 1.257812 -1.054688 1.40625 -1.140625 C 1.550781 -1.234375 1.6875 -1.351562 1.8125 -1.5 C 1.9375 -1.65625 2.019531 -1.882812 2.0625 -2.1875 C 2.082031 -2.300781 2.097656 -2.421875 2.109375 -2.546875 C 2.117188 -2.671875 2.125 -2.84375 2.125 -3.0625 L 2.125 -10.9375 C 2.125 -11.15625 2.117188 -11.328125 2.109375 -11.453125 C 2.097656 -11.578125 2.082031 -11.695312 2.0625 -11.8125 C 2.019531 -12.125 1.9375 -12.351562 1.8125 -12.5 C 1.6875 -12.644531 1.550781 -12.757812 1.40625 -12.84375 C 1.257812 -12.9375 1.132812 -13.03125 1.03125 -13.125 C 0.925781 -13.21875 0.875 -13.347656 0.875 -13.515625 C 0.875 -13.835938 1.222656 -14 1.921875 -14 Z M 6.6875 -1.046875 C 7.988281 -1.046875 9.003906 -1.28125 9.734375 -1.75 C 10.472656 -2.21875 10.992188 -2.84375 11.296875 -3.625 C 11.609375 -4.414062 11.765625 -5.273438 11.765625 -6.203125 C 11.765625 -7.484375 11.519531 -8.632812 11.03125 -9.65625 C 10.539062 -10.6875 9.84375 -11.5 8.9375 -12.09375 C 8.039062 -12.695312 6.96875 -13 5.71875 -13 C 5.226562 -13 4.894531 -12.945312 4.71875 -12.84375 C 4.539062 -12.738281 4.453125 -12.5 4.453125 -12.125 L 4.453125 -2.234375 C 4.453125 -1.972656 4.503906 -1.75 4.609375 -1.5625 C 4.722656 -1.382812 4.9375 -1.253906 5.25 -1.171875 C 5.570312 -1.085938 6.050781 -1.046875 6.6875 -1.046875 Z M 6.6875 -1.046875 "/></g></g><g style="fill:#000001;fill-opacity:1;"><g transform="translate(380.389315, 274.200008)"><path style="stroke:none" d="M 2.28125 -11.09375 C 1.945312 -11.113281 1.679688 -11.226562 1.484375 -11.4375 C 1.296875 -11.65625 1.207031 -11.910156 1.21875 -12.203125 C 1.226562 -12.484375 1.328125 -12.753906 1.515625 -13.015625 C 1.703125 -13.285156 1.941406 -13.503906 2.234375 -13.671875 C 2.535156 -13.835938 2.835938 -13.90625 3.140625 -13.875 C 3.441406 -13.863281 3.695312 -13.75 3.90625 -13.53125 C 4.125 -13.3125 4.226562 -13.046875 4.21875 -12.734375 C 4.207031 -12.453125 4.097656 -12.1875 3.890625 -11.9375 C 3.691406 -11.6875 3.445312 -11.476562 3.15625 -11.3125 C 2.875 -11.15625 2.582031 -11.082031 2.28125 -11.09375 Z M 1.84375 -2.703125 L 1.8125 -6.546875 C 1.8125 -6.929688 1.765625 -7.222656 1.671875 -7.421875 C 1.585938 -7.617188 1.476562 -7.765625 1.34375 -7.859375 C 1.21875 -7.953125 1.101562 -8.035156 1 -8.109375 C 0.90625 -8.191406 0.859375 -8.316406 0.859375 -8.484375 C 0.859375 -8.597656 0.894531 -8.695312 0.96875 -8.78125 C 1.050781 -8.863281 1.210938 -8.957031 1.453125 -9.0625 C 1.878906 -9.257812 2.316406 -9.429688 2.765625 -9.578125 C 3.222656 -9.722656 3.53125 -9.800781 3.6875 -9.8125 C 3.976562 -9.832031 4.125 -9.660156 4.125 -9.296875 L 4.09375 -6.546875 L 4.09375 -2.703125 C 4.09375 -2.234375 4.140625 -1.882812 4.234375 -1.65625 C 4.328125 -1.425781 4.4375 -1.257812 4.5625 -1.15625 C 4.695312 -1.050781 4.8125 -0.953125 4.90625 -0.859375 C 5 -0.773438 5.046875 -0.632812 5.046875 -0.4375 C 5.046875 -0.269531 4.972656 -0.15625 4.828125 -0.09375 C 4.691406 -0.03125 4.488281 0 4.21875 0 L 1.703125 0 C 1.441406 0 1.234375 -0.03125 1.078125 -0.09375 C 0.929688 -0.164062 0.859375 -0.285156 0.859375 -0.453125 C 0.859375 -0.640625 0.90625 -0.773438 1 -0.859375 C 1.101562 -0.953125 1.21875 -1.050781 1.34375 -1.15625 C 1.476562 -1.257812 1.59375 -1.425781 1.6875 -1.65625 C 1.789062 -1.882812 1.84375 -2.234375 1.84375 -2.703125 Z M 1.84375 -2.703125 "/></g></g><g style="fill:#000001;fill-opacity:1;"><g transform="translate(385.487017, 274.200008)"><path style="stroke:none" d="M 8.078125 -1.515625 C 9.035156 -1.515625 9.757812 -1.296875 10.25 -0.859375 C 10.75 -0.421875 11 0.125 11 0.78125 C 11 1.789062 10.488281 2.613281 9.46875 3.25 C 8.445312 3.894531 7.046875 4.21875 5.265625 4.21875 C 4.523438 4.21875 3.804688 4.132812 3.109375 3.96875 C 2.421875 3.800781 1.851562 3.535156 1.40625 3.171875 C 0.957031 2.816406 0.734375 2.347656 0.734375 1.765625 C 0.734375 1.453125 0.84375 1.128906 1.0625 0.796875 C 1.289062 0.472656 1.617188 0.222656 2.046875 0.046875 C 1.710938 -0.117188 1.421875 -0.347656 1.171875 -0.640625 C 0.921875 -0.929688 0.796875 -1.285156 0.796875 -1.703125 C 0.796875 -2.023438 0.910156 -2.351562 1.140625 -2.6875 C 1.378906 -3.019531 1.785156 -3.296875 2.359375 -3.515625 C 1.441406 -4.109375 0.984375 -4.929688 0.984375 -5.984375 C 0.984375 -6.691406 1.1875 -7.332031 1.59375 -7.90625 C 2 -8.476562 2.550781 -8.929688 3.25 -9.265625 C 3.945312 -9.609375 4.726562 -9.785156 5.59375 -9.796875 L 5.90625 -9.796875 C 6.195312 -9.785156 6.414062 -9.769531 6.5625 -9.75 C 6.707031 -9.726562 6.878906 -9.71875 7.078125 -9.71875 C 7.304688 -9.71875 7.566406 -9.800781 7.859375 -9.96875 C 8.148438 -10.144531 8.441406 -10.425781 8.734375 -10.8125 C 8.847656 -10.945312 8.960938 -11.054688 9.078125 -11.140625 C 9.203125 -11.234375 9.34375 -11.28125 9.5 -11.28125 C 9.695312 -11.28125 9.875 -11.207031 10.03125 -11.0625 C 10.195312 -10.914062 10.28125 -10.726562 10.28125 -10.5 C 10.28125 -10.082031 10.097656 -9.738281 9.734375 -9.46875 C 9.367188 -9.195312 8.953125 -9.015625 8.484375 -8.921875 C 9.222656 -8.316406 9.59375 -7.53125 9.59375 -6.5625 C 9.59375 -5.851562 9.40625 -5.21875 9.03125 -4.65625 C 8.664062 -4.09375 8.148438 -3.648438 7.484375 -3.328125 C 6.816406 -3.003906 6.035156 -2.832031 5.140625 -2.8125 C 4.390625 -2.8125 3.738281 -2.914062 3.1875 -3.125 C 3.0625 -3.039062 2.953125 -2.929688 2.859375 -2.796875 C 2.765625 -2.660156 2.71875 -2.519531 2.71875 -2.375 C 2.71875 -1.96875 2.925781 -1.695312 3.34375 -1.5625 C 3.769531 -1.425781 4.25 -1.359375 4.78125 -1.359375 C 5.34375 -1.359375 5.9375 -1.382812 6.5625 -1.4375 C 7.1875 -1.488281 7.691406 -1.515625 8.078125 -1.515625 Z M 5.15625 -8.859375 C 4.59375 -8.859375 4.125 -8.65625 3.75 -8.25 C 3.382812 -7.84375 3.203125 -7.3125 3.203125 -6.65625 C 3.210938 -6.15625 3.300781 -5.679688 3.46875 -5.234375 C 3.644531 -4.785156 3.90625 -4.425781 4.25 -4.15625 C 4.59375 -3.894531 4.992188 -3.765625 5.453125 -3.765625 C 6.046875 -3.765625 6.507812 -3.96875 6.84375 -4.375 C 7.1875 -4.789062 7.359375 -5.328125 7.359375 -5.984375 C 7.359375 -6.460938 7.273438 -6.921875 7.109375 -7.359375 C 6.941406 -7.796875 6.695312 -8.15625 6.375 -8.4375 C 6.0625 -8.71875 5.65625 -8.859375 5.15625 -8.859375 Z M 5.765625 3.21875 C 6.734375 3.21875 7.5 3.070312 8.0625 2.78125 C 8.625 2.488281 8.90625 2.078125 8.90625 1.546875 C 8.90625 1.265625 8.796875 1.003906 8.578125 0.765625 C 8.367188 0.523438 7.929688 0.414062 7.265625 0.4375 C 6.804688 0.445312 6.328125 0.46875 5.828125 0.5 C 5.335938 0.539062 4.78125 0.554688 4.15625 0.546875 C 3.8125 0.546875 3.484375 0.632812 3.171875 0.8125 C 2.867188 0.988281 2.71875 1.269531 2.71875 1.65625 C 2.71875 2.164062 3 2.550781 3.5625 2.8125 C 4.125 3.082031 4.859375 3.21875 5.765625 3.21875 Z M 5.765625 3.21875 "/></g></g><g style="fill:#000001;fill-opacity:1;"><g transform="translate(395.922609, 274.200008)"><path style="stroke:none" d="M 2.28125 -11.09375 C 1.945312 -11.113281 1.679688 -11.226562 1.484375 -11.4375 C 1.296875 -11.65625 1.207031 -11.910156 1.21875 -12.203125 C 1.226562 -12.484375 1.328125 -12.753906 1.515625 -13.015625 C 1.703125 -13.285156 1.941406 -13.503906 2.234375 -13.671875 C 2.535156 -13.835938 2.835938 -13.90625 3.140625 -13.875 C 3.441406 -13.863281 3.695312 -13.75 3.90625 -13.53125 C 4.125 -13.3125 4.226562 -13.046875 4.21875 -12.734375 C 4.207031 -12.453125 4.097656 -12.1875 3.890625 -11.9375 C 3.691406 -11.6875 3.445312 -11.476562 3.15625 -11.3125 C 2.875 -11.15625 2.582031 -11.082031 2.28125 -11.09375 Z M 1.84375 -2.703125 L 1.8125 -6.546875 C 1.8125 -6.929688 1.765625 -7.222656 1.671875 -7.421875 C 1.585938 -7.617188 1.476562 -7.765625 1.34375 -7.859375 C 1.21875 -7.953125 1.101562 -8.035156 1 -8.109375 C 0.90625 -8.191406 0.859375 -8.316406 0.859375 -8.484375 C 0.859375 -8.597656 0.894531 -8.695312 0.96875 -8.78125 C 1.050781 -8.863281 1.210938 -8.957031 1.453125 -9.0625 C 1.878906 -9.257812 2.316406 -9.429688 2.765625 -9.578125 C 3.222656 -9.722656 3.53125 -9.800781 3.6875 -9.8125 C 3.976562 -9.832031 4.125 -9.660156 4.125 -9.296875 L 4.09375 -6.546875 L 4.09375 -2.703125 C 4.09375 -2.234375 4.140625 -1.882812 4.234375 -1.65625 C 4.328125 -1.425781 4.4375 -1.257812 4.5625 -1.15625 C 4.695312 -1.050781 4.8125 -0.953125 4.90625 -0.859375 C 5 -0.773438 5.046875 -0.632812 5.046875 -0.4375 C 5.046875 -0.269531 4.972656 -0.15625 4.828125 -0.09375 C 4.691406 -0.03125 4.488281 0 4.21875 0 L 1.703125 0 C 1.441406 0 1.234375 -0.03125 1.078125 -0.09375 C 0.929688 -0.164062 0.859375 -0.285156 0.859375 -0.453125 C 0.859375 -0.640625 0.90625 -0.773438 1 -0.859375 C 1.101562 -0.953125 1.21875 -1.050781 1.34375 -1.15625 C 1.476562 -1.257812 1.59375 -1.425781 1.6875 -1.65625 C 1.789062 -1.882812 1.84375 -2.234375 1.84375 -2.703125 Z M 1.84375 -2.703125 "/></g></g><g style="fill:#000001;fill-opacity:1;"><g transform="translate(401.020311, 274.200008)"><path style="stroke:none" d="M 6.453125 -2.046875 C 6.628906 -2.191406 6.78125 -2.207031 6.90625 -2.09375 C 7.03125 -1.988281 7.0625 -1.84375 7 -1.65625 C 6.90625 -1.40625 6.734375 -1.132812 6.484375 -0.84375 C 6.242188 -0.550781 5.925781 -0.300781 5.53125 -0.09375 C 5.132812 0.101562 4.671875 0.203125 4.140625 0.203125 C 3.285156 0.203125 2.632812 -0.0507812 2.1875 -0.5625 C 1.738281 -1.082031 1.515625 -1.828125 1.515625 -2.796875 L 1.515625 -3.625 C 1.515625 -4.644531 1.519531 -5.570312 1.53125 -6.40625 C 1.550781 -7.238281 1.570312 -7.941406 1.59375 -8.515625 L 0.9375 -8.515625 C 0.707031 -8.515625 0.546875 -8.550781 0.453125 -8.625 C 0.359375 -8.695312 0.3125 -8.804688 0.3125 -8.953125 C 0.3125 -9.160156 0.394531 -9.347656 0.5625 -9.515625 C 0.9375 -9.921875 1.328125 -10.289062 1.734375 -10.625 C 2.140625 -10.96875 2.53125 -11.265625 2.90625 -11.515625 C 3.09375 -11.640625 3.226562 -11.710938 3.3125 -11.734375 C 3.394531 -11.753906 3.472656 -11.765625 3.546875 -11.765625 C 3.671875 -11.765625 3.765625 -11.710938 3.828125 -11.609375 C 3.890625 -11.503906 3.914062 -11.378906 3.90625 -11.234375 C 3.882812 -10.992188 3.867188 -10.742188 3.859375 -10.484375 C 3.847656 -10.222656 3.832031 -9.925781 3.8125 -9.59375 L 5.8125 -9.59375 C 5.988281 -9.59375 6.132812 -9.5625 6.25 -9.5 C 6.375 -9.4375 6.410156 -9.269531 6.359375 -9 C 6.304688 -8.71875 6.203125 -8.539062 6.046875 -8.46875 C 5.890625 -8.40625 5.722656 -8.382812 5.546875 -8.40625 L 3.796875 -8.453125 C 3.785156 -7.910156 3.78125 -7.25 3.78125 -6.46875 C 3.78125 -5.6875 3.765625 -4.738281 3.734375 -3.625 C 3.722656 -2.84375 3.800781 -2.28125 3.96875 -1.9375 C 4.144531 -1.59375 4.484375 -1.421875 4.984375 -1.421875 C 5.242188 -1.421875 5.507812 -1.484375 5.78125 -1.609375 C 6.050781 -1.734375 6.273438 -1.878906 6.453125 -2.046875 Z M 6.453125 -2.046875 "/></g></g><g style="fill:#000001;fill-opacity:1;"><g transform="translate(407.677396, 274.200008)"><path style="stroke:none" d="M 9.3125 -6.125 L 9.3125 -2.515625 C 9.3125 -2.109375 9.375 -1.828125 9.5 -1.671875 C 9.632812 -1.523438 9.785156 -1.445312 9.953125 -1.4375 C 10.128906 -1.425781 10.28125 -1.410156 10.40625 -1.390625 C 10.53125 -1.378906 10.59375 -1.300781 10.59375 -1.15625 C 10.59375 -0.96875 10.503906 -0.773438 10.328125 -0.578125 C 10.148438 -0.378906 9.925781 -0.21875 9.65625 -0.09375 C 9.394531 0.03125 9.125 0.09375 8.84375 0.09375 C 8.46875 0.09375 8.132812 -0.00390625 7.84375 -0.203125 C 7.550781 -0.398438 7.347656 -0.785156 7.234375 -1.359375 C 6.796875 -0.816406 6.28125 -0.421875 5.6875 -0.171875 C 5.101562 0.0664062 4.507812 0.1875 3.90625 0.1875 C 3.238281 0.1875 2.632812 0.0625 2.09375 -0.1875 C 1.5625 -0.445312 1.140625 -0.800781 0.828125 -1.25 C 0.523438 -1.707031 0.375 -2.238281 0.375 -2.84375 C 0.375 -3.476562 0.550781 -4.039062 0.90625 -4.53125 C 1.269531 -5.03125 1.78125 -5.414062 2.4375 -5.6875 C 3.09375 -5.957031 3.851562 -6.09375 4.71875 -6.09375 C 5.03125 -6.09375 5.394531 -6.066406 5.8125 -6.015625 C 6.238281 -5.972656 6.6875 -5.863281 7.15625 -5.6875 C 7.101562 -6.644531 6.863281 -7.316406 6.4375 -7.703125 C 6.007812 -8.097656 5.394531 -8.296875 4.59375 -8.296875 C 4.113281 -8.296875 3.679688 -8.226562 3.296875 -8.09375 C 2.921875 -7.96875 2.539062 -7.789062 2.15625 -7.5625 C 1.96875 -7.4375 1.800781 -7.429688 1.65625 -7.546875 C 1.519531 -7.660156 1.53125 -7.835938 1.6875 -8.078125 C 1.851562 -8.328125 2.125 -8.582031 2.5 -8.84375 C 2.875 -9.101562 3.320312 -9.320312 3.84375 -9.5 C 4.363281 -9.6875 4.914062 -9.78125 5.5 -9.78125 C 6.800781 -9.78125 7.757812 -9.4375 8.375 -8.75 C 9 -8.0625 9.3125 -7.1875 9.3125 -6.125 Z M 4.734375 -1.078125 C 5.140625 -1.078125 5.523438 -1.171875 5.890625 -1.359375 C 6.253906 -1.546875 6.554688 -1.773438 6.796875 -2.046875 C 7.035156 -2.316406 7.15625 -2.59375 7.15625 -2.875 C 7.15625 -3.132812 7.15625 -3.347656 7.15625 -3.515625 C 7.15625 -3.679688 7.148438 -3.945312 7.140625 -4.3125 C 7.128906 -4.539062 6.914062 -4.734375 6.5 -4.890625 C 6.082031 -5.054688 5.585938 -5.140625 5.015625 -5.140625 C 4.273438 -5.140625 3.671875 -4.957031 3.203125 -4.59375 C 2.734375 -4.226562 2.503906 -3.722656 2.515625 -3.078125 C 2.546875 -2.460938 2.753906 -1.972656 3.140625 -1.609375 C 3.523438 -1.253906 4.054688 -1.078125 4.734375 -1.078125 Z M 4.734375 -1.078125 "/></g></g><g style="fill:#000001;fill-opacity:1;"><g transform="translate(418.092995, 274.200008)"><path style="stroke:none" d="M 1.8125 -2.703125 L 1.8125 -10.921875 C 1.8125 -11.304688 1.757812 -11.597656 1.65625 -11.796875 C 1.5625 -11.992188 1.453125 -12.140625 1.328125 -12.234375 C 1.203125 -12.328125 1.085938 -12.414062 0.984375 -12.5 C 0.890625 -12.582031 0.84375 -12.703125 0.84375 -12.859375 C 0.84375 -12.984375 0.878906 -13.082031 0.953125 -13.15625 C 1.035156 -13.238281 1.195312 -13.332031 1.4375 -13.4375 C 1.863281 -13.632812 2.300781 -13.804688 2.75 -13.953125 C 3.207031 -14.109375 3.507812 -14.191406 3.65625 -14.203125 C 3.945312 -14.210938 4.09375 -14.039062 4.09375 -13.6875 L 4.078125 -10.921875 L 4.078125 -2.703125 C 4.078125 -2.234375 4.125 -1.882812 4.21875 -1.65625 C 4.3125 -1.425781 4.421875 -1.257812 4.546875 -1.15625 C 4.671875 -1.050781 4.78125 -0.953125 4.875 -0.859375 C 4.96875 -0.773438 5.015625 -0.632812 5.015625 -0.4375 C 5.015625 -0.269531 4.941406 -0.15625 4.796875 -0.09375 C 4.660156 -0.03125 4.460938 0 4.203125 0 L 1.6875 0 C 1.425781 0 1.21875 -0.03125 1.0625 -0.09375 C 0.914062 -0.164062 0.84375 -0.285156 0.84375 -0.453125 C 0.84375 -0.640625 0.890625 -0.773438 0.984375 -0.859375 C 1.085938 -0.953125 1.203125 -1.050781 1.328125 -1.15625 C 1.453125 -1.257812 1.5625 -1.425781 1.65625 -1.65625 C 1.757812 -1.882812 1.8125 -2.234375 1.8125 -2.703125 Z M 1.8125 -2.703125 "/></g></g><g style="fill:#000001;fill-opacity:1;"><g transform="translate(423.150711, 274.200008)"><path style="stroke:none" d=""/></g></g><g style="fill:#000001;fill-opacity:1;"><g transform="translate(426.389149, 274.200008)"><path style="stroke:none" d="M 7.625 0.203125 C 6.269531 0.203125 5.078125 -0.078125 4.046875 -0.640625 C 3.015625 -1.203125 2.210938 -2 1.640625 -3.03125 C 1.066406 -4.0625 0.78125 -5.28125 0.78125 -6.6875 C 0.78125 -7.738281 0.960938 -8.71875 1.328125 -9.625 C 1.691406 -10.53125 2.203125 -11.328125 2.859375 -12.015625 C 3.515625 -12.703125 4.28125 -13.238281 5.15625 -13.625 C 6.039062 -14.007812 6.988281 -14.203125 8 -14.203125 C 8.65625 -14.203125 9.1875 -14.132812 9.59375 -14 C 10.007812 -13.875 10.34375 -13.8125 10.59375 -13.8125 C 10.832031 -13.8125 11.007812 -13.867188 11.125 -13.984375 C 11.238281 -14.097656 11.394531 -14.15625 11.59375 -14.15625 C 11.78125 -14.15625 11.925781 -14.085938 12.03125 -13.953125 C 12.132812 -13.828125 12.25 -13.550781 12.375 -13.125 C 12.488281 -12.75 12.59375 -12.347656 12.6875 -11.921875 C 12.789062 -11.492188 12.890625 -11.015625 12.984375 -10.484375 C 13.003906 -10.222656 12.988281 -10.03125 12.9375 -9.90625 C 12.882812 -9.78125 12.765625 -9.707031 12.578125 -9.6875 C 12.421875 -9.664062 12.28125 -9.71875 12.15625 -9.84375 C 12.039062 -9.976562 11.882812 -10.191406 11.6875 -10.484375 C 11.132812 -11.316406 10.539062 -11.953125 9.90625 -12.390625 C 9.269531 -12.828125 8.5 -13.046875 7.59375 -13.046875 C 6.71875 -13.046875 5.945312 -12.820312 5.28125 -12.375 C 4.625 -11.925781 4.113281 -11.300781 3.75 -10.5 C 3.382812 -9.707031 3.203125 -8.796875 3.203125 -7.765625 C 3.203125 -6.554688 3.414062 -5.46875 3.84375 -4.5 C 4.269531 -3.53125 4.875 -2.753906 5.65625 -2.171875 C 6.445312 -1.597656 7.367188 -1.3125 8.421875 -1.3125 C 9.234375 -1.3125 9.96875 -1.460938 10.625 -1.765625 C 11.289062 -2.078125 11.914062 -2.554688 12.5 -3.203125 C 12.65625 -3.367188 12.796875 -3.425781 12.921875 -3.375 C 13.054688 -3.332031 13.144531 -3.234375 13.1875 -3.078125 C 13.238281 -2.921875 13.203125 -2.742188 13.078125 -2.546875 C 12.773438 -2.003906 12.335938 -1.523438 11.765625 -1.109375 C 11.191406 -0.703125 10.546875 -0.378906 9.828125 -0.140625 C 9.117188 0.0859375 8.382812 0.203125 7.625 0.203125 Z M 7.625 0.203125 "/></g></g><g style="fill:#000001;fill-opacity:1;"><g transform="translate(439.463703, 274.200008)"><path style="stroke:none" d="M 5.375 0.203125 C 4.488281 0.203125 3.691406 0.015625 2.984375 -0.359375 C 2.273438 -0.742188 1.710938 -1.28125 1.296875 -1.96875 C 0.890625 -2.664062 0.6875 -3.488281 0.6875 -4.4375 C 0.6875 -5.4375 0.914062 -6.34375 1.375 -7.15625 C 1.84375 -7.96875 2.484375 -8.609375 3.296875 -9.078125 C 4.109375 -9.554688 5.035156 -9.796875 6.078125 -9.796875 C 6.984375 -9.796875 7.78125 -9.585938 8.46875 -9.171875 C 9.164062 -8.753906 9.710938 -8.1875 10.109375 -7.46875 C 10.503906 -6.757812 10.703125 -5.957031 10.703125 -5.0625 C 10.703125 -4.070312 10.472656 -3.175781 10.015625 -2.375 C 9.566406 -1.582031 8.941406 -0.953125 8.140625 -0.484375 C 7.335938 -0.0234375 6.414062 0.203125 5.375 0.203125 Z M 6.125 -0.9375 C 6.894531 -0.9375 7.476562 -1.21875 7.875 -1.78125 C 8.28125 -2.351562 8.484375 -3.050781 8.484375 -3.875 C 8.484375 -4.675781 8.34375 -5.441406 8.0625 -6.171875 C 7.789062 -6.898438 7.414062 -7.492188 6.9375 -7.953125 C 6.457031 -8.410156 5.90625 -8.640625 5.28125 -8.640625 C 4.75 -8.640625 4.304688 -8.5 3.953125 -8.21875 C 3.609375 -7.9375 3.347656 -7.5625 3.171875 -7.09375 C 3.003906 -6.632812 2.921875 -6.125 2.921875 -5.5625 C 2.921875 -4.726562 3.054688 -3.960938 3.328125 -3.265625 C 3.597656 -2.566406 3.972656 -2.003906 4.453125 -1.578125 C 4.941406 -1.148438 5.5 -0.9375 6.125 -0.9375 Z M 6.125 -0.9375 "/></g></g><g style="fill:#000001;fill-opacity:1;"><g transform="translate(450.119204, 274.200008)"><path style="stroke:none" d="M 17.546875 -5.6875 L 17.5625 -2.703125 C 17.5625 -2.234375 17.609375 -1.882812 17.703125 -1.65625 C 17.804688 -1.425781 17.921875 -1.257812 18.046875 -1.15625 C 18.171875 -1.050781 18.28125 -0.953125 18.375 -0.859375 C 18.46875 -0.773438 18.515625 -0.632812 18.515625 -0.4375 C 18.515625 -0.269531 18.441406 -0.15625 18.296875 -0.09375 C 18.148438 -0.03125 17.945312 0 17.6875 0 L 15.1875 0 C 14.925781 0 14.71875 -0.03125 14.5625 -0.09375 C 14.414062 -0.164062 14.34375 -0.285156 14.34375 -0.453125 C 14.34375 -0.640625 14.390625 -0.773438 14.484375 -0.859375 C 14.585938 -0.953125 14.703125 -1.050781 14.828125 -1.15625 C 14.953125 -1.257812 15.0625 -1.425781 15.15625 -1.65625 C 15.25 -1.882812 15.296875 -2.234375 15.296875 -2.703125 L 15.296875 -5.40625 C 15.296875 -6.238281 15.140625 -6.945312 14.828125 -7.53125 C 14.515625 -8.113281 13.96875 -8.394531 13.1875 -8.375 C 12.570312 -8.363281 12.019531 -8.101562 11.53125 -7.59375 C 11.039062 -7.09375 10.785156 -6.332031 10.765625 -5.3125 L 10.78125 -2.703125 C 10.78125 -2.234375 10.828125 -1.882812 10.921875 -1.65625 C 11.015625 -1.425781 11.125 -1.257812 11.25 -1.15625 C 11.375 -1.050781 11.484375 -0.953125 11.578125 -0.859375 C 11.671875 -0.773438 11.71875 -0.632812 11.71875 -0.4375 C 11.71875 -0.269531 11.644531 -0.15625 11.5 -0.09375 C 11.363281 -0.03125 11.164062 0 10.90625 0 L 8.40625 0 C 8.144531 0 7.9375 -0.03125 7.78125 -0.09375 C 7.625 -0.164062 7.546875 -0.285156 7.546875 -0.453125 C 7.546875 -0.640625 7.59375 -0.773438 7.6875 -0.859375 C 7.789062 -0.953125 7.90625 -1.050781 8.03125 -1.15625 C 8.15625 -1.257812 8.265625 -1.425781 8.359375 -1.65625 C 8.460938 -1.882812 8.515625 -2.234375 8.515625 -2.703125 L 8.515625 -5.40625 C 8.515625 -5.945312 8.460938 -6.441406 8.359375 -6.890625 C 8.253906 -7.347656 8.0625 -7.707031 7.78125 -7.96875 C 7.5 -8.238281 7.09375 -8.367188 6.5625 -8.359375 C 6.144531 -8.359375 5.75 -8.238281 5.375 -8 C 5 -7.757812 4.691406 -7.398438 4.453125 -6.921875 C 4.210938 -6.453125 4.09375 -5.863281 4.09375 -5.15625 L 4.09375 -2.703125 C 4.09375 -2.234375 4.140625 -1.882812 4.234375 -1.65625 C 4.328125 -1.425781 4.4375 -1.257812 4.5625 -1.15625 C 4.695312 -1.050781 4.8125 -0.953125 4.90625 -0.859375 C 5 -0.773438 5.046875 -0.632812 5.046875 -0.4375 C 5.046875 -0.269531 4.972656 -0.15625 4.828125 -0.09375 C 4.691406 -0.03125 4.488281 0 4.21875 0 L 1.703125 0 C 1.441406 0 1.234375 -0.03125 1.078125 -0.09375 C 0.929688 -0.164062 0.859375 -0.285156 0.859375 -0.453125 C 0.859375 -0.640625 0.90625 -0.773438 1 -0.859375 C 1.101562 -0.953125 1.21875 -1.050781 1.34375 -1.15625 C 1.476562 -1.257812 1.59375 -1.425781 1.6875 -1.65625 C 1.789062 -1.882812 1.84375 -2.234375 1.84375 -2.703125 L 1.84375 -6.625 C 1.84375 -6.925781 1.796875 -7.191406 1.703125 -7.421875 C 1.609375 -7.648438 1.445312 -7.835938 1.21875 -7.984375 C 1.125 -8.046875 1.039062 -8.113281 0.96875 -8.1875 C 0.894531 -8.269531 0.859375 -8.375 0.859375 -8.5 C 0.859375 -8.632812 0.894531 -8.742188 0.96875 -8.828125 C 1.050781 -8.910156 1.210938 -9.007812 1.453125 -9.125 C 1.816406 -9.28125 2.203125 -9.421875 2.609375 -9.546875 C 3.015625 -9.671875 3.289062 -9.742188 3.4375 -9.765625 C 3.71875 -9.765625 3.859375 -9.585938 3.859375 -9.234375 L 3.84375 -7.703125 C 4.238281 -8.410156 4.738281 -8.9375 5.34375 -9.28125 C 5.957031 -9.625 6.609375 -9.796875 7.296875 -9.796875 C 8.898438 -9.796875 9.945312 -9.109375 10.4375 -7.734375 C 10.851562 -8.441406 11.375 -8.960938 12 -9.296875 C 12.625 -9.628906 13.273438 -9.796875 13.953125 -9.796875 C 15.109375 -9.796875 15.992188 -9.441406 16.609375 -8.734375 C 17.234375 -8.035156 17.546875 -7.019531 17.546875 -5.6875 Z M 17.546875 -5.6875 "/></g></g><g style="fill:#000001;fill-opacity:1;"><g transform="translate(468.451677, 274.200008)"><path style="stroke:none" d="M 7.21875 -9.796875 C 8.019531 -9.796875 8.722656 -9.597656 9.328125 -9.203125 C 9.929688 -8.816406 10.40625 -8.269531 10.75 -7.5625 C 11.101562 -6.851562 11.28125 -6.03125 11.28125 -5.09375 C 11.28125 -4 11.070312 -3.054688 10.65625 -2.265625 C 10.25 -1.484375 9.710938 -0.878906 9.046875 -0.453125 C 8.378906 -0.0234375 7.664062 0.191406 6.90625 0.203125 C 6.34375 0.210938 5.800781 0.125 5.28125 -0.0625 C 4.769531 -0.25 4.328125 -0.46875 3.953125 -0.71875 L 3.984375 1.296875 C 3.984375 1.765625 4.03125 2.113281 4.125 2.34375 C 4.21875 2.570312 4.328125 2.738281 4.453125 2.84375 C 4.578125 2.945312 4.6875 3.039062 4.78125 3.125 C 4.875 3.21875 4.921875 3.363281 4.921875 3.5625 C 4.921875 3.726562 4.847656 3.84375 4.703125 3.90625 C 4.566406 3.96875 4.363281 4 4.09375 4 L 1.578125 4 C 1.328125 4 1.125 3.96875 0.96875 3.90625 C 0.8125 3.84375 0.734375 3.726562 0.734375 3.5625 C 0.734375 3.363281 0.785156 3.21875 0.890625 3.125 C 0.992188 3.039062 1.109375 2.945312 1.234375 2.84375 C 1.359375 2.738281 1.46875 2.570312 1.5625 2.34375 C 1.664062 2.113281 1.71875 1.765625 1.71875 1.296875 L 1.6875 -6.6875 C 1.6875 -6.988281 1.640625 -7.25 1.546875 -7.46875 C 1.460938 -7.6875 1.304688 -7.867188 1.078125 -8.015625 C 0.984375 -8.085938 0.898438 -8.160156 0.828125 -8.234375 C 0.753906 -8.316406 0.71875 -8.421875 0.71875 -8.546875 C 0.71875 -8.691406 0.753906 -8.800781 0.828125 -8.875 C 0.910156 -8.957031 1.070312 -9.050781 1.3125 -9.15625 C 1.675781 -9.332031 2.0625 -9.476562 2.46875 -9.59375 C 2.875 -9.71875 3.148438 -9.785156 3.296875 -9.796875 C 3.578125 -9.828125 3.71875 -9.65625 3.71875 -9.28125 L 3.703125 -7.859375 C 4.035156 -8.367188 4.488281 -8.816406 5.0625 -9.203125 C 5.632812 -9.597656 6.351562 -9.796875 7.21875 -9.796875 Z M 6.8125 -0.875 C 7.351562 -0.875 7.785156 -1.023438 8.109375 -1.328125 C 8.429688 -1.640625 8.671875 -2.046875 8.828125 -2.546875 C 8.992188 -3.046875 9.078125 -3.570312 9.078125 -4.125 C 9.078125 -5.4375 8.8125 -6.46875 8.28125 -7.21875 C 7.757812 -7.96875 7.125 -8.34375 6.375 -8.34375 C 5.875 -8.34375 5.4375 -8.191406 5.0625 -7.890625 C 4.695312 -7.597656 4.421875 -7.226562 4.234375 -6.78125 C 4.046875 -6.34375 3.953125 -5.882812 3.953125 -5.40625 L 3.953125 -4.046875 C 3.972656 -3.378906 4.125 -2.804688 4.40625 -2.328125 C 4.695312 -1.859375 5.0625 -1.5 5.5 -1.25 C 5.9375 -1 6.375 -0.875 6.8125 -0.875 Z M 6.8125 -0.875 "/></g></g><g style="fill:#000001;fill-opacity:1;"><g transform="translate(479.666967, 274.200008)"><path style="stroke:none" d="M 9.3125 -6.125 L 9.3125 -2.515625 C 9.3125 -2.109375 9.375 -1.828125 9.5 -1.671875 C 9.632812 -1.523438 9.785156 -1.445312 9.953125 -1.4375 C 10.128906 -1.425781 10.28125 -1.410156 10.40625 -1.390625 C 10.53125 -1.378906 10.59375 -1.300781 10.59375 -1.15625 C 10.59375 -0.96875 10.503906 -0.773438 10.328125 -0.578125 C 10.148438 -0.378906 9.925781 -0.21875 9.65625 -0.09375 C 9.394531 0.03125 9.125 0.09375 8.84375 0.09375 C 8.46875 0.09375 8.132812 -0.00390625 7.84375 -0.203125 C 7.550781 -0.398438 7.347656 -0.785156 7.234375 -1.359375 C 6.796875 -0.816406 6.28125 -0.421875 5.6875 -0.171875 C 5.101562 0.0664062 4.507812 0.1875 3.90625 0.1875 C 3.238281 0.1875 2.632812 0.0625 2.09375 -0.1875 C 1.5625 -0.445312 1.140625 -0.800781 0.828125 -1.25 C 0.523438 -1.707031 0.375 -2.238281 0.375 -2.84375 C 0.375 -3.476562 0.550781 -4.039062 0.90625 -4.53125 C 1.269531 -5.03125 1.78125 -5.414062 2.4375 -5.6875 C 3.09375 -5.957031 3.851562 -6.09375 4.71875 -6.09375 C 5.03125 -6.09375 5.394531 -6.066406 5.8125 -6.015625 C 6.238281 -5.972656 6.6875 -5.863281 7.15625 -5.6875 C 7.101562 -6.644531 6.863281 -7.316406 6.4375 -7.703125 C 6.007812 -8.097656 5.394531 -8.296875 4.59375 -8.296875 C 4.113281 -8.296875 3.679688 -8.226562 3.296875 -8.09375 C 2.921875 -7.96875 2.539062 -7.789062 2.15625 -7.5625 C 1.96875 -7.4375 1.800781 -7.429688 1.65625 -7.546875 C 1.519531 -7.660156 1.53125 -7.835938 1.6875 -8.078125 C 1.851562 -8.328125 2.125 -8.582031 2.5 -8.84375 C 2.875 -9.101562 3.320312 -9.320312 3.84375 -9.5 C 4.363281 -9.6875 4.914062 -9.78125 5.5 -9.78125 C 6.800781 -9.78125 7.757812 -9.4375 8.375 -8.75 C 9 -8.0625 9.3125 -7.1875 9.3125 -6.125 Z M 4.734375 -1.078125 C 5.140625 -1.078125 5.523438 -1.171875 5.890625 -1.359375 C 6.253906 -1.546875 6.554688 -1.773438 6.796875 -2.046875 C 7.035156 -2.316406 7.15625 -2.59375 7.15625 -2.875 C 7.15625 -3.132812 7.15625 -3.347656 7.15625 -3.515625 C 7.15625 -3.679688 7.148438 -3.945312 7.140625 -4.3125 C 7.128906 -4.539062 6.914062 -4.734375 6.5 -4.890625 C 6.082031 -5.054688 5.585938 -5.140625 5.015625 -5.140625 C 4.273438 -5.140625 3.671875 -4.957031 3.203125 -4.59375 C 2.734375 -4.226562 2.503906 -3.722656 2.515625 -3.078125 C 2.546875 -2.460938 2.753906 -1.972656 3.140625 -1.609375 C 3.523438 -1.253906 4.054688 -1.078125 4.734375 -1.078125 Z M 4.734375 -1.078125 "/></g></g><g style="fill:#000001;fill-opacity:1;"><g transform="translate(490.082566, 274.200008)"><path style="stroke:none" d="M 5.09375 0.203125 C 4.226562 0.203125 3.476562 0.0703125 2.84375 -0.1875 C 2.21875 -0.445312 1.726562 -0.78125 1.375 -1.1875 C 1.03125 -1.601562 0.859375 -2.039062 0.859375 -2.5 C 0.859375 -2.820312 0.960938 -3.078125 1.171875 -3.265625 C 1.378906 -3.453125 1.628906 -3.546875 1.921875 -3.546875 C 2.203125 -3.546875 2.414062 -3.460938 2.5625 -3.296875 C 2.707031 -3.140625 2.847656 -2.960938 2.984375 -2.765625 C 3.148438 -2.492188 3.328125 -2.207031 3.515625 -1.90625 C 3.703125 -1.601562 3.9375 -1.347656 4.21875 -1.140625 C 4.507812 -0.941406 4.894531 -0.84375 5.375 -0.84375 C 5.820312 -0.84375 6.164062 -0.957031 6.40625 -1.1875 C 6.65625 -1.425781 6.78125 -1.710938 6.78125 -2.046875 C 6.78125 -2.429688 6.582031 -2.785156 6.1875 -3.109375 C 5.789062 -3.429688 5.179688 -3.757812 4.359375 -4.09375 C 3.828125 -4.3125 3.320312 -4.539062 2.84375 -4.78125 C 2.363281 -5.019531 1.972656 -5.320312 1.671875 -5.6875 C 1.378906 -6.050781 1.234375 -6.515625 1.234375 -7.078125 C 1.234375 -7.691406 1.421875 -8.195312 1.796875 -8.59375 C 2.171875 -9 2.644531 -9.300781 3.21875 -9.5 C 3.789062 -9.695312 4.382812 -9.796875 5 -9.796875 C 5.726562 -9.796875 6.367188 -9.691406 6.921875 -9.484375 C 7.484375 -9.285156 7.921875 -9.007812 8.234375 -8.65625 C 8.546875 -8.3125 8.703125 -7.910156 8.703125 -7.453125 C 8.703125 -7.117188 8.613281 -6.851562 8.4375 -6.65625 C 8.269531 -6.46875 8.035156 -6.375 7.734375 -6.375 C 7.441406 -6.375 7.207031 -6.453125 7.03125 -6.609375 C 6.863281 -6.773438 6.726562 -6.957031 6.625 -7.15625 C 6.488281 -7.394531 6.351562 -7.640625 6.21875 -7.890625 C 6.082031 -8.148438 5.898438 -8.363281 5.671875 -8.53125 C 5.453125 -8.695312 5.125 -8.78125 4.6875 -8.78125 C 4.3125 -8.78125 3.992188 -8.671875 3.734375 -8.453125 C 3.484375 -8.234375 3.359375 -7.957031 3.359375 -7.625 C 3.359375 -7.207031 3.523438 -6.851562 3.859375 -6.5625 C 4.191406 -6.269531 4.816406 -5.929688 5.734375 -5.546875 C 6.347656 -5.304688 6.898438 -5.054688 7.390625 -4.796875 C 7.890625 -4.535156 8.28125 -4.238281 8.5625 -3.90625 C 8.851562 -3.570312 9 -3.148438 9 -2.640625 C 9 -2.117188 8.835938 -1.644531 8.515625 -1.21875 C 8.203125 -0.789062 7.753906 -0.445312 7.171875 -0.1875 C 6.585938 0.0703125 5.894531 0.203125 5.09375 0.203125 Z M 5.09375 0.203125 "/></g></g><g style="fill:#000001;fill-opacity:1;"><g transform="translate(499.058739, 274.200008)"><path style="stroke:none" d="M 5.09375 0.203125 C 4.226562 0.203125 3.476562 0.0703125 2.84375 -0.1875 C 2.21875 -0.445312 1.726562 -0.78125 1.375 -1.1875 C 1.03125 -1.601562 0.859375 -2.039062 0.859375 -2.5 C 0.859375 -2.820312 0.960938 -3.078125 1.171875 -3.265625 C 1.378906 -3.453125 1.628906 -3.546875 1.921875 -3.546875 C 2.203125 -3.546875 2.414062 -3.460938 2.5625 -3.296875 C 2.707031 -3.140625 2.847656 -2.960938 2.984375 -2.765625 C 3.148438 -2.492188 3.328125 -2.207031 3.515625 -1.90625 C 3.703125 -1.601562 3.9375 -1.347656 4.21875 -1.140625 C 4.507812 -0.941406 4.894531 -0.84375 5.375 -0.84375 C 5.820312 -0.84375 6.164062 -0.957031 6.40625 -1.1875 C 6.65625 -1.425781 6.78125 -1.710938 6.78125 -2.046875 C 6.78125 -2.429688 6.582031 -2.785156 6.1875 -3.109375 C 5.789062 -3.429688 5.179688 -3.757812 4.359375 -4.09375 C 3.828125 -4.3125 3.320312 -4.539062 2.84375 -4.78125 C 2.363281 -5.019531 1.972656 -5.320312 1.671875 -5.6875 C 1.378906 -6.050781 1.234375 -6.515625 1.234375 -7.078125 C 1.234375 -7.691406 1.421875 -8.195312 1.796875 -8.59375 C 2.171875 -9 2.644531 -9.300781 3.21875 -9.5 C 3.789062 -9.695312 4.382812 -9.796875 5 -9.796875 C 5.726562 -9.796875 6.367188 -9.691406 6.921875 -9.484375 C 7.484375 -9.285156 7.921875 -9.007812 8.234375 -8.65625 C 8.546875 -8.3125 8.703125 -7.910156 8.703125 -7.453125 C 8.703125 -7.117188 8.613281 -6.851562 8.4375 -6.65625 C 8.269531 -6.46875 8.035156 -6.375 7.734375 -6.375 C 7.441406 -6.375 7.207031 -6.453125 7.03125 -6.609375 C 6.863281 -6.773438 6.726562 -6.957031 6.625 -7.15625 C 6.488281 -7.394531 6.351562 -7.640625 6.21875 -7.890625 C 6.082031 -8.148438 5.898438 -8.363281 5.671875 -8.53125 C 5.453125 -8.695312 5.125 -8.78125 4.6875 -8.78125 C 4.3125 -8.78125 3.992188 -8.671875 3.734375 -8.453125 C 3.484375 -8.234375 3.359375 -7.957031 3.359375 -7.625 C 3.359375 -7.207031 3.523438 -6.851562 3.859375 -6.5625 C 4.191406 -6.269531 4.816406 -5.929688 5.734375 -5.546875 C 6.347656 -5.304688 6.898438 -5.054688 7.390625 -4.796875 C 7.890625 -4.535156 8.28125 -4.238281 8.5625 -3.90625 C 8.851562 -3.570312 9 -3.148438 9 -2.640625 C 9 -2.117188 8.835938 -1.644531 8.515625 -1.21875 C 8.203125 -0.789062 7.753906 -0.445312 7.171875 -0.1875 C 6.585938 0.0703125 5.894531 0.203125 5.09375 0.203125 Z M 5.09375 0.203125 "/></g></g><g style="fill:#000001;fill-opacity:1;"><g transform="translate(366.115238, 297.450007)"><path style="stroke:none" d="M 3.40625 -3.515625 L 2.984375 -2.453125 C 2.816406 -2.054688 2.75 -1.757812 2.78125 -1.5625 C 2.820312 -1.363281 2.894531 -1.21875 3 -1.125 C 3.101562 -1.03125 3.207031 -0.9375 3.3125 -0.84375 C 3.425781 -0.757812 3.484375 -0.640625 3.484375 -0.484375 C 3.484375 -0.296875 3.398438 -0.164062 3.234375 -0.09375 C 3.078125 -0.03125 2.882812 0 2.65625 0 L 0.9375 0 C 0.65625 0 0.429688 -0.03125 0.265625 -0.09375 C 0.0976562 -0.164062 0.015625 -0.285156 0.015625 -0.453125 C 0.015625 -0.628906 0.0703125 -0.757812 0.1875 -0.84375 C 0.300781 -0.9375 0.441406 -1.03125 0.609375 -1.125 C 0.785156 -1.21875 0.96875 -1.363281 1.15625 -1.5625 C 1.34375 -1.757812 1.519531 -2.054688 1.6875 -2.453125 L 5.359375 -11.734375 C 5.484375 -12.046875 5.515625 -12.28125 5.453125 -12.4375 C 5.398438 -12.601562 5.3125 -12.726562 5.1875 -12.8125 C 5.070312 -12.90625 4.957031 -13.003906 4.84375 -13.109375 C 4.738281 -13.210938 4.6875 -13.347656 4.6875 -13.515625 C 4.6875 -13.835938 4.882812 -14 5.28125 -14 L 7.3125 -14 C 7.625 -14 7.835938 -13.851562 7.953125 -13.5625 L 12.3125 -2.5 C 12.476562 -2.082031 12.644531 -1.773438 12.8125 -1.578125 C 12.988281 -1.378906 13.148438 -1.234375 13.296875 -1.140625 C 13.441406 -1.046875 13.5625 -0.957031 13.65625 -0.875 C 13.75 -0.800781 13.796875 -0.675781 13.796875 -0.5 C 13.796875 -0.3125 13.71875 -0.179688 13.5625 -0.109375 C 13.414062 -0.0351562 13.15625 0 12.78125 0 L 10 0 C 9.414062 0 9.125 -0.148438 9.125 -0.453125 C 9.125 -0.640625 9.179688 -0.78125 9.296875 -0.875 C 9.421875 -0.96875 9.546875 -1.0625 9.671875 -1.15625 C 9.804688 -1.257812 9.894531 -1.410156 9.9375 -1.609375 C 9.988281 -1.816406 9.9375 -2.113281 9.78125 -2.5 L 9.40625 -3.5 C 9.34375 -3.644531 9.28125 -3.757812 9.21875 -3.84375 C 9.15625 -3.9375 9.03125 -4 8.84375 -4.03125 C 8.664062 -4.0625 8.390625 -4.078125 8.015625 -4.078125 C 7.640625 -4.085938 7.113281 -4.09375 6.4375 -4.09375 C 5.726562 -4.09375 5.179688 -4.085938 4.796875 -4.078125 C 4.410156 -4.078125 4.128906 -4.0625 3.953125 -4.03125 C 3.773438 -4 3.648438 -3.941406 3.578125 -3.859375 C 3.515625 -3.773438 3.457031 -3.660156 3.40625 -3.515625 Z M 6.453125 -5.15625 C 7.210938 -5.15625 7.75 -5.160156 8.0625 -5.171875 C 8.382812 -5.191406 8.5625 -5.238281 8.59375 -5.3125 C 8.625 -5.382812 8.609375 -5.507812 8.546875 -5.6875 L 6.375 -11.1875 L 4.234375 -5.6875 C 4.171875 -5.507812 4.160156 -5.382812 4.203125 -5.3125 C 4.242188 -5.238281 4.429688 -5.191406 4.765625 -5.171875 C 5.097656 -5.160156 5.660156 -5.15625 6.453125 -5.15625 Z M 6.453125 -5.15625 "/></g></g><g style="fill:#000001;fill-opacity:1;"><g transform="translate(379.369716, 297.450007)"><path style="stroke:none" d="M 5.09375 0.203125 C 4.226562 0.203125 3.476562 0.0703125 2.84375 -0.1875 C 2.21875 -0.445312 1.726562 -0.78125 1.375 -1.1875 C 1.03125 -1.601562 0.859375 -2.039062 0.859375 -2.5 C 0.859375 -2.820312 0.960938 -3.078125 1.171875 -3.265625 C 1.378906 -3.453125 1.628906 -3.546875 1.921875 -3.546875 C 2.203125 -3.546875 2.414062 -3.460938 2.5625 -3.296875 C 2.707031 -3.140625 2.847656 -2.960938 2.984375 -2.765625 C 3.148438 -2.492188 3.328125 -2.207031 3.515625 -1.90625 C 3.703125 -1.601562 3.9375 -1.347656 4.21875 -1.140625 C 4.507812 -0.941406 4.894531 -0.84375 5.375 -0.84375 C 5.820312 -0.84375 6.164062 -0.957031 6.40625 -1.1875 C 6.65625 -1.425781 6.78125 -1.710938 6.78125 -2.046875 C 6.78125 -2.429688 6.582031 -2.785156 6.1875 -3.109375 C 5.789062 -3.429688 5.179688 -3.757812 4.359375 -4.09375 C 3.828125 -4.3125 3.320312 -4.539062 2.84375 -4.78125 C 2.363281 -5.019531 1.972656 -5.320312 1.671875 -5.6875 C 1.378906 -6.050781 1.234375 -6.515625 1.234375 -7.078125 C 1.234375 -7.691406 1.421875 -8.195312 1.796875 -8.59375 C 2.171875 -9 2.644531 -9.300781 3.21875 -9.5 C 3.789062 -9.695312 4.382812 -9.796875 5 -9.796875 C 5.726562 -9.796875 6.367188 -9.691406 6.921875 -9.484375 C 7.484375 -9.285156 7.921875 -9.007812 8.234375 -8.65625 C 8.546875 -8.3125 8.703125 -7.910156 8.703125 -7.453125 C 8.703125 -7.117188 8.613281 -6.851562 8.4375 -6.65625 C 8.269531 -6.46875 8.035156 -6.375 7.734375 -6.375 C 7.441406 -6.375 7.207031 -6.453125 7.03125 -6.609375 C 6.863281 -6.773438 6.726562 -6.957031 6.625 -7.15625 C 6.488281 -7.394531 6.351562 -7.640625 6.21875 -7.890625 C 6.082031 -8.148438 5.898438 -8.363281 5.671875 -8.53125 C 5.453125 -8.695312 5.125 -8.78125 4.6875 -8.78125 C 4.3125 -8.78125 3.992188 -8.671875 3.734375 -8.453125 C 3.484375 -8.234375 3.359375 -7.957031 3.359375 -7.625 C 3.359375 -7.207031 3.523438 -6.851562 3.859375 -6.5625 C 4.191406 -6.269531 4.816406 -5.929688 5.734375 -5.546875 C 6.347656 -5.304688 6.898438 -5.054688 7.390625 -4.796875 C 7.890625 -4.535156 8.28125 -4.238281 8.5625 -3.90625 C 8.851562 -3.570312 9 -3.148438 9 -2.640625 C 9 -2.117188 8.835938 -1.644531 8.515625 -1.21875 C 8.203125 -0.789062 7.753906 -0.445312 7.171875 -0.1875 C 6.585938 0.0703125 5.894531 0.203125 5.09375 0.203125 Z M 5.09375 0.203125 "/></g></g><g style="fill:#000001;fill-opacity:1;"><g transform="translate(388.345889, 297.450007)"><path style="stroke:none" d="M 5.09375 0.203125 C 4.226562 0.203125 3.476562 0.0703125 2.84375 -0.1875 C 2.21875 -0.445312 1.726562 -0.78125 1.375 -1.1875 C 1.03125 -1.601562 0.859375 -2.039062 0.859375 -2.5 C 0.859375 -2.820312 0.960938 -3.078125 1.171875 -3.265625 C 1.378906 -3.453125 1.628906 -3.546875 1.921875 -3.546875 C 2.203125 -3.546875 2.414062 -3.460938 2.5625 -3.296875 C 2.707031 -3.140625 2.847656 -2.960938 2.984375 -2.765625 C 3.148438 -2.492188 3.328125 -2.207031 3.515625 -1.90625 C 3.703125 -1.601562 3.9375 -1.347656 4.21875 -1.140625 C 4.507812 -0.941406 4.894531 -0.84375 5.375 -0.84375 C 5.820312 -0.84375 6.164062 -0.957031 6.40625 -1.1875 C 6.65625 -1.425781 6.78125 -1.710938 6.78125 -2.046875 C 6.78125 -2.429688 6.582031 -2.785156 6.1875 -3.109375 C 5.789062 -3.429688 5.179688 -3.757812 4.359375 -4.09375 C 3.828125 -4.3125 3.320312 -4.539062 2.84375 -4.78125 C 2.363281 -5.019531 1.972656 -5.320312 1.671875 -5.6875 C 1.378906 -6.050781 1.234375 -6.515625 1.234375 -7.078125 C 1.234375 -7.691406 1.421875 -8.195312 1.796875 -8.59375 C 2.171875 -9 2.644531 -9.300781 3.21875 -9.5 C 3.789062 -9.695312 4.382812 -9.796875 5 -9.796875 C 5.726562 -9.796875 6.367188 -9.691406 6.921875 -9.484375 C 7.484375 -9.285156 7.921875 -9.007812 8.234375 -8.65625 C 8.546875 -8.3125 8.703125 -7.910156 8.703125 -7.453125 C 8.703125 -7.117188 8.613281 -6.851562 8.4375 -6.65625 C 8.269531 -6.46875 8.035156 -6.375 7.734375 -6.375 C 7.441406 -6.375 7.207031 -6.453125 7.03125 -6.609375 C 6.863281 -6.773438 6.726562 -6.957031 6.625 -7.15625 C 6.488281 -7.394531 6.351562 -7.640625 6.21875 -7.890625 C 6.082031 -8.148438 5.898438 -8.363281 5.671875 -8.53125 C 5.453125 -8.695312 5.125 -8.78125 4.6875 -8.78125 C 4.3125 -8.78125 3.992188 -8.671875 3.734375 -8.453125 C 3.484375 -8.234375 3.359375 -7.957031 3.359375 -7.625 C 3.359375 -7.207031 3.523438 -6.851562 3.859375 -6.5625 C 4.191406 -6.269531 4.816406 -5.929688 5.734375 -5.546875 C 6.347656 -5.304688 6.898438 -5.054688 7.390625 -4.796875 C 7.890625 -4.535156 8.28125 -4.238281 8.5625 -3.90625 C 8.851562 -3.570312 9 -3.148438 9 -2.640625 C 9 -2.117188 8.835938 -1.644531 8.515625 -1.21875 C 8.203125 -0.789062 7.753906 -0.445312 7.171875 -0.1875 C 6.585938 0.0703125 5.894531 0.203125 5.09375 0.203125 Z M 5.09375 0.203125 "/></g></g><g style="fill:#000001;fill-opacity:1;"><g transform="translate(397.322062, 297.450007)"><path style="stroke:none" d="M 5.375 0.203125 C 4.488281 0.203125 3.691406 0.015625 2.984375 -0.359375 C 2.273438 -0.742188 1.710938 -1.28125 1.296875 -1.96875 C 0.890625 -2.664062 0.6875 -3.488281 0.6875 -4.4375 C 0.6875 -5.4375 0.914062 -6.34375 1.375 -7.15625 C 1.84375 -7.96875 2.484375 -8.609375 3.296875 -9.078125 C 4.109375 -9.554688 5.035156 -9.796875 6.078125 -9.796875 C 6.984375 -9.796875 7.78125 -9.585938 8.46875 -9.171875 C 9.164062 -8.753906 9.710938 -8.1875 10.109375 -7.46875 C 10.503906 -6.757812 10.703125 -5.957031 10.703125 -5.0625 C 10.703125 -4.070312 10.472656 -3.175781 10.015625 -2.375 C 9.566406 -1.582031 8.941406 -0.953125 8.140625 -0.484375 C 7.335938 -0.0234375 6.414062 0.203125 5.375 0.203125 Z M 6.125 -0.9375 C 6.894531 -0.9375 7.476562 -1.21875 7.875 -1.78125 C 8.28125 -2.351562 8.484375 -3.050781 8.484375 -3.875 C 8.484375 -4.675781 8.34375 -5.441406 8.0625 -6.171875 C 7.789062 -6.898438 7.414062 -7.492188 6.9375 -7.953125 C 6.457031 -8.410156 5.90625 -8.640625 5.28125 -8.640625 C 4.75 -8.640625 4.304688 -8.5 3.953125 -8.21875 C 3.609375 -7.9375 3.347656 -7.5625 3.171875 -7.09375 C 3.003906 -6.632812 2.921875 -6.125 2.921875 -5.5625 C 2.921875 -4.726562 3.054688 -3.960938 3.328125 -3.265625 C 3.597656 -2.566406 3.972656 -2.003906 4.453125 -1.578125 C 4.941406 -1.148438 5.5 -0.9375 6.125 -0.9375 Z M 6.125 -0.9375 "/></g></g><g style="fill:#000001;fill-opacity:1;"><g transform="translate(407.977563, 297.450007)"><path style="stroke:none" d="M 5.421875 0.203125 C 4.441406 0.203125 3.59375 -0.0078125 2.875 -0.4375 C 2.164062 -0.863281 1.625 -1.429688 1.25 -2.140625 C 0.875 -2.859375 0.6875 -3.640625 0.6875 -4.484375 C 0.6875 -5.492188 0.914062 -6.398438 1.375 -7.203125 C 1.832031 -8.003906 2.453125 -8.632812 3.234375 -9.09375 C 4.015625 -9.550781 4.875 -9.78125 5.8125 -9.78125 C 6.644531 -9.78125 7.359375 -9.625 7.953125 -9.3125 C 8.546875 -9 9 -8.59375 9.3125 -8.09375 C 9.625 -7.59375 9.78125 -7.066406 9.78125 -6.515625 C 9.78125 -6.109375 9.671875 -5.800781 9.453125 -5.59375 C 9.234375 -5.382812 8.96875 -5.28125 8.65625 -5.28125 C 8.300781 -5.28125 8.039062 -5.390625 7.875 -5.609375 C 7.707031 -5.835938 7.578125 -6.109375 7.484375 -6.421875 C 7.304688 -7.078125 7.046875 -7.613281 6.703125 -8.03125 C 6.359375 -8.445312 5.867188 -8.664062 5.234375 -8.6875 C 4.492188 -8.6875 3.910156 -8.398438 3.484375 -7.828125 C 3.066406 -7.265625 2.859375 -6.550781 2.859375 -5.6875 C 2.859375 -4.84375 3.003906 -4.097656 3.296875 -3.453125 C 3.585938 -2.816406 4 -2.320312 4.53125 -1.96875 C 5.070312 -1.613281 5.695312 -1.4375 6.40625 -1.4375 C 7.039062 -1.4375 7.578125 -1.566406 8.015625 -1.828125 C 8.460938 -2.097656 8.859375 -2.398438 9.203125 -2.734375 C 9.390625 -2.921875 9.566406 -2.960938 9.734375 -2.859375 C 9.898438 -2.765625 9.925781 -2.582031 9.8125 -2.3125 C 9.6875 -1.96875 9.441406 -1.597656 9.078125 -1.203125 C 8.722656 -0.816406 8.242188 -0.484375 7.640625 -0.203125 C 7.035156 0.0664062 6.296875 0.203125 5.421875 0.203125 Z M 5.421875 0.203125 "/></g></g><g style="fill:#000001;fill-opacity:1;"><g transform="translate(417.673444, 297.450007)"><path style="stroke:none" d="M 2.28125 -11.09375 C 1.945312 -11.113281 1.679688 -11.226562 1.484375 -11.4375 C 1.296875 -11.65625 1.207031 -11.910156 1.21875 -12.203125 C 1.226562 -12.484375 1.328125 -12.753906 1.515625 -13.015625 C 1.703125 -13.285156 1.941406 -13.503906 2.234375 -13.671875 C 2.535156 -13.835938 2.835938 -13.90625 3.140625 -13.875 C 3.441406 -13.863281 3.695312 -13.75 3.90625 -13.53125 C 4.125 -13.3125 4.226562 -13.046875 4.21875 -12.734375 C 4.207031 -12.453125 4.097656 -12.1875 3.890625 -11.9375 C 3.691406 -11.6875 3.445312 -11.476562 3.15625 -11.3125 C 2.875 -11.15625 2.582031 -11.082031 2.28125 -11.09375 Z M 1.84375 -2.703125 L 1.8125 -6.546875 C 1.8125 -6.929688 1.765625 -7.222656 1.671875 -7.421875 C 1.585938 -7.617188 1.476562 -7.765625 1.34375 -7.859375 C 1.21875 -7.953125 1.101562 -8.035156 1 -8.109375 C 0.90625 -8.191406 0.859375 -8.316406 0.859375 -8.484375 C 0.859375 -8.597656 0.894531 -8.695312 0.96875 -8.78125 C 1.050781 -8.863281 1.210938 -8.957031 1.453125 -9.0625 C 1.878906 -9.257812 2.316406 -9.429688 2.765625 -9.578125 C 3.222656 -9.722656 3.53125 -9.800781 3.6875 -9.8125 C 3.976562 -9.832031 4.125 -9.660156 4.125 -9.296875 L 4.09375 -6.546875 L 4.09375 -2.703125 C 4.09375 -2.234375 4.140625 -1.882812 4.234375 -1.65625 C 4.328125 -1.425781 4.4375 -1.257812 4.5625 -1.15625 C 4.695312 -1.050781 4.8125 -0.953125 4.90625 -0.859375 C 5 -0.773438 5.046875 -0.632812 5.046875 -0.4375 C 5.046875 -0.269531 4.972656 -0.15625 4.828125 -0.09375 C 4.691406 -0.03125 4.488281 0 4.21875 0 L 1.703125 0 C 1.441406 0 1.234375 -0.03125 1.078125 -0.09375 C 0.929688 -0.164062 0.859375 -0.285156 0.859375 -0.453125 C 0.859375 -0.640625 0.90625 -0.773438 1 -0.859375 C 1.101562 -0.953125 1.21875 -1.050781 1.34375 -1.15625 C 1.476562 -1.257812 1.59375 -1.425781 1.6875 -1.65625 C 1.789062 -1.882812 1.84375 -2.234375 1.84375 -2.703125 Z M 1.84375 -2.703125 "/></g></g><g style="fill:#000001;fill-opacity:1;"><g transform="translate(422.771146, 297.450007)"><path style="stroke:none" d="M 9.3125 -6.125 L 9.3125 -2.515625 C 9.3125 -2.109375 9.375 -1.828125 9.5 -1.671875 C 9.632812 -1.523438 9.785156 -1.445312 9.953125 -1.4375 C 10.128906 -1.425781 10.28125 -1.410156 10.40625 -1.390625 C 10.53125 -1.378906 10.59375 -1.300781 10.59375 -1.15625 C 10.59375 -0.96875 10.503906 -0.773438 10.328125 -0.578125 C 10.148438 -0.378906 9.925781 -0.21875 9.65625 -0.09375 C 9.394531 0.03125 9.125 0.09375 8.84375 0.09375 C 8.46875 0.09375 8.132812 -0.00390625 7.84375 -0.203125 C 7.550781 -0.398438 7.347656 -0.785156 7.234375 -1.359375 C 6.796875 -0.816406 6.28125 -0.421875 5.6875 -0.171875 C 5.101562 0.0664062 4.507812 0.1875 3.90625 0.1875 C 3.238281 0.1875 2.632812 0.0625 2.09375 -0.1875 C 1.5625 -0.445312 1.140625 -0.800781 0.828125 -1.25 C 0.523438 -1.707031 0.375 -2.238281 0.375 -2.84375 C 0.375 -3.476562 0.550781 -4.039062 0.90625 -4.53125 C 1.269531 -5.03125 1.78125 -5.414062 2.4375 -5.6875 C 3.09375 -5.957031 3.851562 -6.09375 4.71875 -6.09375 C 5.03125 -6.09375 5.394531 -6.066406 5.8125 -6.015625 C 6.238281 -5.972656 6.6875 -5.863281 7.15625 -5.6875 C 7.101562 -6.644531 6.863281 -7.316406 6.4375 -7.703125 C 6.007812 -8.097656 5.394531 -8.296875 4.59375 -8.296875 C 4.113281 -8.296875 3.679688 -8.226562 3.296875 -8.09375 C 2.921875 -7.96875 2.539062 -7.789062 2.15625 -7.5625 C 1.96875 -7.4375 1.800781 -7.429688 1.65625 -7.546875 C 1.519531 -7.660156 1.53125 -7.835938 1.6875 -8.078125 C 1.851562 -8.328125 2.125 -8.582031 2.5 -8.84375 C 2.875 -9.101562 3.320312 -9.320312 3.84375 -9.5 C 4.363281 -9.6875 4.914062 -9.78125 5.5 -9.78125 C 6.800781 -9.78125 7.757812 -9.4375 8.375 -8.75 C 9 -8.0625 9.3125 -7.1875 9.3125 -6.125 Z M 4.734375 -1.078125 C 5.140625 -1.078125 5.523438 -1.171875 5.890625 -1.359375 C 6.253906 -1.546875 6.554688 -1.773438 6.796875 -2.046875 C 7.035156 -2.316406 7.15625 -2.59375 7.15625 -2.875 C 7.15625 -3.132812 7.15625 -3.347656 7.15625 -3.515625 C 7.15625 -3.679688 7.148438 -3.945312 7.140625 -4.3125 C 7.128906 -4.539062 6.914062 -4.734375 6.5 -4.890625 C 6.082031 -5.054688 5.585938 -5.140625 5.015625 -5.140625 C 4.273438 -5.140625 3.671875 -4.957031 3.203125 -4.59375 C 2.734375 -4.226562 2.503906 -3.722656 2.515625 -3.078125 C 2.546875 -2.460938 2.753906 -1.972656 3.140625 -1.609375 C 3.523438 -1.253906 4.054688 -1.078125 4.734375 -1.078125 Z M 4.734375 -1.078125 "/></g></g><g style="fill:#000001;fill-opacity:1;"><g transform="translate(433.186745, 297.450007)"><path style="stroke:none" d="M 6.453125 -2.046875 C 6.628906 -2.191406 6.78125 -2.207031 6.90625 -2.09375 C 7.03125 -1.988281 7.0625 -1.84375 7 -1.65625 C 6.90625 -1.40625 6.734375 -1.132812 6.484375 -0.84375 C 6.242188 -0.550781 5.925781 -0.300781 5.53125 -0.09375 C 5.132812 0.101562 4.671875 0.203125 4.140625 0.203125 C 3.285156 0.203125 2.632812 -0.0507812 2.1875 -0.5625 C 1.738281 -1.082031 1.515625 -1.828125 1.515625 -2.796875 L 1.515625 -3.625 C 1.515625 -4.644531 1.519531 -5.570312 1.53125 -6.40625 C 1.550781 -7.238281 1.570312 -7.941406 1.59375 -8.515625 L 0.9375 -8.515625 C 0.707031 -8.515625 0.546875 -8.550781 0.453125 -8.625 C 0.359375 -8.695312 0.3125 -8.804688 0.3125 -8.953125 C 0.3125 -9.160156 0.394531 -9.347656 0.5625 -9.515625 C 0.9375 -9.921875 1.328125 -10.289062 1.734375 -10.625 C 2.140625 -10.96875 2.53125 -11.265625 2.90625 -11.515625 C 3.09375 -11.640625 3.226562 -11.710938 3.3125 -11.734375 C 3.394531 -11.753906 3.472656 -11.765625 3.546875 -11.765625 C 3.671875 -11.765625 3.765625 -11.710938 3.828125 -11.609375 C 3.890625 -11.503906 3.914062 -11.378906 3.90625 -11.234375 C 3.882812 -10.992188 3.867188 -10.742188 3.859375 -10.484375 C 3.847656 -10.222656 3.832031 -9.925781 3.8125 -9.59375 L 5.8125 -9.59375 C 5.988281 -9.59375 6.132812 -9.5625 6.25 -9.5 C 6.375 -9.4375 6.410156 -9.269531 6.359375 -9 C 6.304688 -8.71875 6.203125 -8.539062 6.046875 -8.46875 C 5.890625 -8.40625 5.722656 -8.382812 5.546875 -8.40625 L 3.796875 -8.453125 C 3.785156 -7.910156 3.78125 -7.25 3.78125 -6.46875 C 3.78125 -5.6875 3.765625 -4.738281 3.734375 -3.625 C 3.722656 -2.84375 3.800781 -2.28125 3.96875 -1.9375 C 4.144531 -1.59375 4.484375 -1.421875 4.984375 -1.421875 C 5.242188 -1.421875 5.507812 -1.484375 5.78125 -1.609375 C 6.050781 -1.734375 6.273438 -1.878906 6.453125 -2.046875 Z M 6.453125 -2.046875 "/></g></g><g style="fill:#000001;fill-opacity:1;"><g transform="translate(439.84383, 297.450007)"><path style="stroke:none" d="M 2.28125 -11.09375 C 1.945312 -11.113281 1.679688 -11.226562 1.484375 -11.4375 C 1.296875 -11.65625 1.207031 -11.910156 1.21875 -12.203125 C 1.226562 -12.484375 1.328125 -12.753906 1.515625 -13.015625 C 1.703125 -13.285156 1.941406 -13.503906 2.234375 -13.671875 C 2.535156 -13.835938 2.835938 -13.90625 3.140625 -13.875 C 3.441406 -13.863281 3.695312 -13.75 3.90625 -13.53125 C 4.125 -13.3125 4.226562 -13.046875 4.21875 -12.734375 C 4.207031 -12.453125 4.097656 -12.1875 3.890625 -11.9375 C 3.691406 -11.6875 3.445312 -11.476562 3.15625 -11.3125 C 2.875 -11.15625 2.582031 -11.082031 2.28125 -11.09375 Z M 1.84375 -2.703125 L 1.8125 -6.546875 C 1.8125 -6.929688 1.765625 -7.222656 1.671875 -7.421875 C 1.585938 -7.617188 1.476562 -7.765625 1.34375 -7.859375 C 1.21875 -7.953125 1.101562 -8.035156 1 -8.109375 C 0.90625 -8.191406 0.859375 -8.316406 0.859375 -8.484375 C 0.859375 -8.597656 0.894531 -8.695312 0.96875 -8.78125 C 1.050781 -8.863281 1.210938 -8.957031 1.453125 -9.0625 C 1.878906 -9.257812 2.316406 -9.429688 2.765625 -9.578125 C 3.222656 -9.722656 3.53125 -9.800781 3.6875 -9.8125 C 3.976562 -9.832031 4.125 -9.660156 4.125 -9.296875 L 4.09375 -6.546875 L 4.09375 -2.703125 C 4.09375 -2.234375 4.140625 -1.882812 4.234375 -1.65625 C 4.328125 -1.425781 4.4375 -1.257812 4.5625 -1.15625 C 4.695312 -1.050781 4.8125 -0.953125 4.90625 -0.859375 C 5 -0.773438 5.046875 -0.632812 5.046875 -0.4375 C 5.046875 -0.269531 4.972656 -0.15625 4.828125 -0.09375 C 4.691406 -0.03125 4.488281 0 4.21875 0 L 1.703125 0 C 1.441406 0 1.234375 -0.03125 1.078125 -0.09375 C 0.929688 -0.164062 0.859375 -0.285156 0.859375 -0.453125 C 0.859375 -0.640625 0.90625 -0.773438 1 -0.859375 C 1.101562 -0.953125 1.21875 -1.050781 1.34375 -1.15625 C 1.476562 -1.257812 1.59375 -1.425781 1.6875 -1.65625 C 1.789062 -1.882812 1.84375 -2.234375 1.84375 -2.703125 Z M 1.84375 -2.703125 "/></g></g><g style="fill:#000001;fill-opacity:1;"><g transform="translate(444.941532, 297.450007)"><path style="stroke:none" d="M 5.375 0.203125 C 4.488281 0.203125 3.691406 0.015625 2.984375 -0.359375 C 2.273438 -0.742188 1.710938 -1.28125 1.296875 -1.96875 C 0.890625 -2.664062 0.6875 -3.488281 0.6875 -4.4375 C 0.6875 -5.4375 0.914062 -6.34375 1.375 -7.15625 C 1.84375 -7.96875 2.484375 -8.609375 3.296875 -9.078125 C 4.109375 -9.554688 5.035156 -9.796875 6.078125 -9.796875 C 6.984375 -9.796875 7.78125 -9.585938 8.46875 -9.171875 C 9.164062 -8.753906 9.710938 -8.1875 10.109375 -7.46875 C 10.503906 -6.757812 10.703125 -5.957031 10.703125 -5.0625 C 10.703125 -4.070312 10.472656 -3.175781 10.015625 -2.375 C 9.566406 -1.582031 8.941406 -0.953125 8.140625 -0.484375 C 7.335938 -0.0234375 6.414062 0.203125 5.375 0.203125 Z M 6.125 -0.9375 C 6.894531 -0.9375 7.476562 -1.21875 7.875 -1.78125 C 8.28125 -2.351562 8.484375 -3.050781 8.484375 -3.875 C 8.484375 -4.675781 8.34375 -5.441406 8.0625 -6.171875 C 7.789062 -6.898438 7.414062 -7.492188 6.9375 -7.953125 C 6.457031 -8.410156 5.90625 -8.640625 5.28125 -8.640625 C 4.75 -8.640625 4.304688 -8.5 3.953125 -8.21875 C 3.609375 -7.9375 3.347656 -7.5625 3.171875 -7.09375 C 3.003906 -6.632812 2.921875 -6.125 2.921875 -5.5625 C 2.921875 -4.726562 3.054688 -3.960938 3.328125 -3.265625 C 3.597656 -2.566406 3.972656 -2.003906 4.453125 -1.578125 C 4.941406 -1.148438 5.5 -0.9375 6.125 -0.9375 Z M 6.125 -0.9375 "/></g></g><g style="fill:#000001;fill-opacity:1;"><g transform="translate(455.597034, 297.450007)"><path style="stroke:none" d="M 10.84375 -5.6875 L 10.859375 -2.703125 C 10.859375 -2.234375 10.90625 -1.882812 11 -1.65625 C 11.101562 -1.425781 11.21875 -1.257812 11.34375 -1.15625 C 11.476562 -1.050781 11.585938 -0.953125 11.671875 -0.859375 C 11.765625 -0.773438 11.8125 -0.632812 11.8125 -0.4375 C 11.8125 -0.269531 11.738281 -0.15625 11.59375 -0.09375 C 11.445312 -0.03125 11.25 0 11 0 L 8.484375 0 C 8.222656 0 8.015625 -0.03125 7.859375 -0.09375 C 7.710938 -0.164062 7.640625 -0.285156 7.640625 -0.453125 C 7.640625 -0.640625 7.6875 -0.773438 7.78125 -0.859375 C 7.882812 -0.953125 8 -1.050781 8.125 -1.15625 C 8.25 -1.257812 8.359375 -1.425781 8.453125 -1.65625 C 8.546875 -1.882812 8.59375 -2.234375 8.59375 -2.703125 L 8.59375 -5.40625 C 8.59375 -6.238281 8.4375 -6.945312 8.125 -7.53125 C 7.8125 -8.113281 7.265625 -8.394531 6.484375 -8.375 C 5.835938 -8.363281 5.269531 -8.09375 4.78125 -7.5625 C 4.300781 -7.03125 4.0625 -6.226562 4.0625 -5.15625 L 4.0625 -2.703125 C 4.0625 -2.234375 4.109375 -1.882812 4.203125 -1.65625 C 4.304688 -1.425781 4.421875 -1.257812 4.546875 -1.15625 C 4.671875 -1.050781 4.78125 -0.953125 4.875 -0.859375 C 4.96875 -0.773438 5.015625 -0.632812 5.015625 -0.4375 C 5.015625 -0.269531 4.941406 -0.15625 4.796875 -0.09375 C 4.648438 -0.03125 4.445312 0 4.1875 0 L 1.6875 0 C 1.425781 0 1.21875 -0.03125 1.0625 -0.09375 C 0.914062 -0.164062 0.84375 -0.285156 0.84375 -0.453125 C 0.84375 -0.640625 0.890625 -0.773438 0.984375 -0.859375 C 1.085938 -0.953125 1.203125 -1.050781 1.328125 -1.15625 C 1.453125 -1.257812 1.5625 -1.425781 1.65625 -1.65625 C 1.75 -1.882812 1.796875 -2.234375 1.796875 -2.703125 L 1.796875 -6.625 C 1.796875 -6.925781 1.753906 -7.191406 1.671875 -7.421875 C 1.585938 -7.648438 1.429688 -7.835938 1.203125 -7.984375 C 1.097656 -8.046875 1.007812 -8.113281 0.9375 -8.1875 C 0.875 -8.269531 0.84375 -8.375 0.84375 -8.5 C 0.84375 -8.632812 0.878906 -8.742188 0.953125 -8.828125 C 1.035156 -8.910156 1.195312 -9.007812 1.4375 -9.125 C 1.78125 -9.28125 2.15625 -9.421875 2.5625 -9.546875 C 2.976562 -9.671875 3.265625 -9.742188 3.421875 -9.765625 C 3.703125 -9.765625 3.84375 -9.585938 3.84375 -9.234375 L 3.8125 -7.84375 C 4.226562 -8.507812 4.742188 -9 5.359375 -9.3125 C 5.972656 -9.632812 6.609375 -9.796875 7.265625 -9.796875 C 8.410156 -9.796875 9.289062 -9.441406 9.90625 -8.734375 C 10.53125 -8.035156 10.84375 -7.019531 10.84375 -5.6875 Z M 10.84375 -5.6875 "/></g></g><g style="fill:#000001;fill-opacity:1;"><g transform="translate(467.236327, 297.450007)"><path style="stroke:none" d=""/></g></g></g></svg>